<?xml version="1.0" encoding="UTF-8"?>
<svg id="Layer_1" data-name="Layer 1" xmlns="http://www.w3.org/2000/svg" viewBox="0 0 140.9 51.04">
  <defs>
    <style>
      .cls-1 {
        fill: #9876ad;
      }

      .cls-1, .cls-2 {
        stroke-width: 0px;
      }

      .cls-2 {
        fill: #683c83;
      }
    </style>
  </defs>
  <g>
    <path class="cls-2" d="m41.57,33.82c.21.48.45.81.87.81.39,0,.63-.3.63-.75,0-.72-.15-2.37-.33-3.54h9.84c-.51,5.19-.39,10.41.3,15.6h-10.41c.15-.81.3-2.34.3-3.21,0-.48-.18-.75-.57-.75-.36,0-.57.24-.78.63-1.08,1.89-2.85,3.93-6.18,3.93-4.14,0-6.84-3.12-6.84-8.07,0-5.25,2.82-8.73,7.26-8.73,3.33,0,5.1,2.25,5.91,4.08Zm-1.74,6.12c1.32,0,2.37-1.2,2.37-2.49,0-.87-.57-1.44-1.44-1.44-1.35,0-2.43,1.17-2.43,2.43,0,.9.6,1.5,1.5,1.5Z"/>
    <path class="cls-2" d="m65.48,30.34h10.05c0,7.56-7.8,6.75-7.8,8.07,0,.42.6.72,1.65.72,2.97,0,5.52-1.5,6.87-3.42h.12c.33,1.11.6,2.91.6,4.05,0,3.75-1.92,6.75-5.04,6.75-3.81,0-5.43-2.64-6.39-5.16-.27-.69-.6-1.23-1.17-1.23-.54,0-.63.48-.63.93,0,1.08.15,3.09.45,4.89h-10.35c.6-6.24.6-14.16,0-20.1h10.35c-.36,2.25-.48,6.33-.48,8.61,0,1.14.18,1.86.87,1.86s1.23-.54,1.23-1.38c0-1.71-.15-3.24-.33-4.59Z"/>
    <path class="cls-2" d="m91.73,39.34c2.04,0,4.29-.3,6.12-.81-.39,5.1-4.56,8.01-9.81,8.01-6.21,0-9.9-3.3-9.9-8.37s3.99-8.43,10.2-8.43c5.46,0,9.21,2.22,9.21,7.38h-9.66c-.78,0-1.14.24-1.14.72,0,.87,1.71,1.5,4.98,1.5Zm-3.39-3.75c1.02,0,1.5-.75,1.5-1.62,0-.99-.48-1.89-1.5-1.89s-1.44.9-1.44,1.89c0,.87.42,1.62,1.44,1.62Z"/>
    <path class="cls-2" d="m110.18,36.94c-.63,0-1.17.48-1.17,1.35,0,1.92.15,4.71.66,7.65h-10.35c.51-5.19.39-10.41-.3-15.6h10.5c-.21,1.02-.42,2.43-.42,3.06,0,.54.27.9.66.9.36,0,.63-.24.78-.78.72-2.82,2.34-3.78,6.87-3.78v8.97c-3.12,0-5.34-1.77-7.23-1.77Z"/>
    <path class="cls-2" d="m128.33,38.17c0,1.29.72,1.77,1.41,1.77.63,0,1.47-.48,1.47-2.07,0-1.74-.15-4.44-.63-7.26l-.03-.27h10.35c-.72,3.99-.15,7.32-.15,11.1,0,6.63-4.86,9.6-11.19,9.6-3.48,0-6.72-1.53-7.65-3.27v-.18c.45.12,1.38.24,2.34.24,3.93,0,6.87-2.58,6.87-4.95,0-.54-.27-.9-.66-.9-.36,0-.72.3-.96.78-.93,1.83-2.61,3.03-5.34,3.03-3.57,0-5.25-2.55-5.25-6.3s.39-6.18-.24-9.15h10.35c-.48,3.51-.69,6.24-.69,7.83Z"/>
  </g>
  <path class="cls-2" d="m0,1.34C4.97,1.34,10.85,0,16.74,0c6.62,0,8.7,3.72,8.7,9.81,0,4.61-1.97,7.29-3.88,7.88-.92.3-1.51.89-1.51,2.01,0,1.26.6,1.86,1.51,1.86,3.59,0,5.64,4.39,5.64,11.3,0,8.33-3.66,13.83-9.41,13.83-5,0-7.68-.74-10.5-.74s-5.28.15-7.29.74C1.02,30.26,1.02,13.53,0,1.34Zm13.11,31.89c.95,0,1.66-2.16,1.66-4.68,0-3.2-.7-5.65-1.66-5.65-1.02,0-1.59,2.45-1.59,5.65,0,2.53.56,4.68,1.59,4.68Zm0-16.21c1.09,0,1.55-1.78,1.55-4.16,0-2.68-.46-4.98-1.55-4.98s-1.48,2.3-1.48,4.98c0,2.38.35,4.16,1.48,4.16Z"/>
  <g>
    <path class="cls-1" d="m28.88,7.39h10.35c-.6,5.19-.6,10.41,0,15.6h-10.35c.6-5.19.6-10.41,0-15.6Zm1.95-3.42c0-1.68,1.47-2.73,3.39-2.73s3.36,1.05,3.36,2.73c0,1.41-1.29,2.52-3.36,2.52s-3.39-1.11-3.39-2.52Z"/>
    <path class="cls-1" d="m51.32,19.51c-.21-.48-.45-.75-.81-.75s-.57.27-.57.69c0,.72.15,2.37.33,3.54h-9.84c.51-6.21.39-13.59-.3-20.1h10.53c-.21,1.92-.42,5.43-.42,7.56,0,.54.27.9.66.9.36,0,.66-.3.93-.78.99-1.83,2.46-3.78,5.49-3.78,4.44,0,7.29,3.12,7.29,8.07,0,5.25-2.82,8.73-7.26,8.73-3.33,0-5.22-2.25-6.03-4.08Zm.93-3.09c1.35,0,2.43-1.17,2.43-2.43,0-.9-.6-1.5-1.5-1.5-1.32,0-2.37,1.2-2.37,2.49,0,.87.57,1.44,1.44,1.44Z"/>
    <path class="cls-1" d="m66.2,11.11c0-3.36,3.09-4.32,7.11-4.32s8.22.69,10.86.33l-.18,7.35c-1.86-1.56-4.17-2.58-6.36-2.58-.84,0-1.5.33-1.5.93,0,2.07,8.4-.75,8.4,5.82,0,3.06-2.58,4.95-7.77,4.95-4.23,0-6.72-.63-10.53-.6l-.12-8.01c1.77,1.38,4.23,2.43,6.33,2.43,1.17,0,1.86-.45,1.86-1.05,0-2.07-8.1.84-8.1-5.25Z"/>
  </g>
  <path class="cls-1" d="m18.26,1.96s5.25-.9,5.7,4.84-.63-2.31-5.7-4.84Z"/>
  <path class="cls-1" d="m20,22.8s5.25-1.15,5.7,6.14-.63-2.93-5.7-6.14Z"/>
</svg>