<?xml version="1.0" encoding="utf-8"?>
<!-- Generator: Adobe Illustrator 27.2.0, SVG Export Plug-In . SVG Version: 6.00 Build 0)  -->
<svg version="1.1" id="Lager_1" xmlns="http://www.w3.org/2000/svg" xmlns:xlink="http://www.w3.org/1999/xlink" x="0px" y="0px"
	 viewBox="0 0 157.63 100" style="enable-background:new 0 0 157.63 100;" xml:space="preserve">
<style type="text/css">
	.st0{fill:#FFFFFF;}
</style>
<path class="st0" d="M77.68,99.63c-9.36,0-18.72,0.02-28.08,0C25.16,99.56,4.36,81.34,0.74,57.45C-3.06,32.32,13.41,8.79,37.38,2.63
	c3.98-1.02,8-1.64,12.13-1.63c18.83,0.04,37.65,0,56.48,0.02c24.86,0.02,45.46,17.68,49.28,42c4.31,27.5-15.53,52.42-41.85,56
	c-10.23,1.39-20.53,0.29-30.8,0.6C80.98,99.68,79.33,99.64,77.68,99.63z M82.42,67.47c0.01,0,0.02,0,0.03,0
	c0,2.53,0.03,5.07-0.01,7.6c-0.03,1.8,0.7,2.28,2.48,1.86c11.87-2.81,21.5-15.29,20.89-27.26c-0.93-18.22-17.4-28.97-32.54-26.26
	c-12.33,2.2-22.61,13.16-23.02,25.36c-0.44,13.16,8.58,25.25,20.88,28.09c1.69,0.39,2.53,0.18,2.51-1.75
	c-0.05-4.87-0.04-9.74,0.02-14.6c0.02-1.63-0.48-2.3-2.28-2.33c-4.69-0.09-4.68-0.18-4.83-4.79c-0.01-0.41-0.01-0.81-0.06-1.22
	c-0.17-1.5,0.57-1.99,2-1.88c0.92,0.07,1.86-0.09,2.77,0.03c1.98,0.25,2.48-0.67,2.42-2.45c-0.08-2.22-0.18-4.5,0.18-6.68
	c0.93-5.59,6.42-8.5,13.43-7.57c2.1,0.28,3.28,0.61,3.12,3.18c-0.25,4.01-0.05,4.02-4.17,4.35c-0.31,0.02-0.62,0.01-0.92,0.07
	c-2.54,0.57-3.34,2.82-3.02,7.39c0.19,2.77,2.19,1.59,3.41,1.63c4.58,0.16,4.58,0.08,3.67,4.6c-0.12,0.59-0.24,1.2-0.24,1.8
	c0,1.17-0.59,1.48-1.71,1.59c-4.98,0.5-4.97,0.54-5,5.55C82.41,65.04,82.42,66.25,82.42,67.47z"/>
</svg>
