<?xml version="1.0" encoding="utf-8"?>
<!-- Generator: Adobe Illustrator 27.2.0, SVG Export Plug-In . SVG Version: 6.00 Build 0)  -->
<svg version="1.1" id="Lager_1" xmlns="http://www.w3.org/2000/svg" xmlns:xlink="http://www.w3.org/1999/xlink" x="0px" y="0px"
	 viewBox="0 0 156 100" style="enable-background:new 0 0 156 100;" xml:space="preserve">
<style type="text/css">
	.st0{fill:#FFFFFF;}
	.st1{fill:none;stroke:#FFFFFF;stroke-width:5;stroke-miterlimit:10;}
</style>
<g>
	<path class="st0" d="M79.9,55.39h23.17v0.49c0,5.67-2.03,14.28-7.21,19.67s-11.13,6.37-16.66,6.37c-5.6,0-11.62-0.91-17.08-6.51
		c-2.73-2.8-6.86-8.47-6.86-17.78c0-7.63,2.8-13.72,6.72-17.71c5.74-5.95,12.81-6.79,18.34-6.79c3.85,0,8.75,0.63,13.09,3.5
		c3.15,2.1,5.88,5.39,7.56,8.33l-9.73,5.25c-0.91-1.82-2.31-3.71-4.13-5.04c-2.1-1.54-4.48-2.24-7.14-2.24
		c-4.27,0-7.42,1.4-9.66,3.78c-2.59,2.73-3.99,6.72-3.99,11.06c0,5.32,1.96,8.75,3.92,10.71c2.73,2.8,5.88,3.64,9.45,3.64
		c4.62,0,7.07-1.61,8.12-2.52c0.35-0.28,2.45-2.1,3.36-5.53H79.9V55.39z"/>
</g>
<circle class="st1" cx="79" cy="57" r="32.5"/>
<g>
	<path class="st0" d="M57.56,20.85l3.7-2.16l0.05,0.08c0.53,0.91,1,2.47,0.68,3.81c-0.33,1.34-1.19,2.05-2.07,2.57
		c-0.89,0.52-1.94,0.94-3.33,0.55c-0.7-0.19-1.88-0.71-2.75-2.2c-0.71-1.22-0.83-2.45-0.57-3.46c0.36-1.48,1.41-2.28,2.3-2.79
		c0.62-0.36,1.46-0.71,2.42-0.66c0.7,0.04,1.44,0.31,1.98,0.63l-1.07,1.74c-0.31-0.21-0.71-0.38-1.13-0.42
		c-0.48-0.05-0.92,0.06-1.35,0.31c-0.68,0.4-1.06,0.91-1.19,1.5c-0.16,0.68-0.01,1.45,0.39,2.14c0.5,0.85,1.13,1.22,1.62,1.35
		c0.7,0.19,1.28,0.03,1.85-0.3c0.74-0.43,0.98-0.92,1.06-1.16c0.03-0.08,0.2-0.56,0.02-1.2l-1.8,1.05L57.56,20.85z"/>
	<path class="st0" d="M65.11,22.19l-2.18-8.36l1.68-0.44l5.94,4.2l-1.4-5.39l1.93-0.5l2.18,8.36l-1.68,0.44l-5.95-4.23l1.41,5.41
		L65.11,22.19z"/>
	<path class="st0" d="M80.04,12.92l-2.89,0.08l0.05,1.67l2.74-0.07l0.04,1.68l-2.74,0.07l0.05,1.92l2.88-0.08l0.05,1.68L75.35,20
		l-0.23-8.63l4.88-0.13L80.04,12.92z"/>
	<path class="st0" d="M81.6,19.67l3.19-8.14l1.62,0.35l1,5.5l3.2-4.59l1.62,0.35l-0.48,8.73l-1.95-0.42l0.42-5.18l-3.21,4.58
		l-0.68-0.15l-1.02-5.49l-1.76,4.89L81.6,19.67z"/>
	<path class="st0" d="M98.41,23.58l-2.88-1.53l-1.35,1.13l-1.83-0.97l7.12-6l1.61,0.85l-1.03,9.23l-1.83-0.97L98.41,23.58z
		 M98.64,21.97l0.42-3.06l-2.31,2.06L98.64,21.97z"/>
</g>
</svg>
