<?xml version="1.0" encoding="utf-8"?>
<!-- Generator: Adobe Illustrator 27.2.0, SVG Export Plug-In . SVG Version: 6.00 Build 0)  -->
<svg version="1.1" id="Lager_1" xmlns="http://www.w3.org/2000/svg" xmlns:xlink="http://www.w3.org/1999/xlink" x="0px" y="0px"
	 viewBox="0 0 157.63 100" style="enable-background:new 0 0 157.63 100;" xml:space="preserve">
<style type="text/css">
	.st0{fill:#FFFFFF;}
</style>
<path class="st0" d="M78.65,99.47c-9.46,0-18.93,0.04-28.39-0.01C26.1,99.35,5.36,81.25,1.63,57.54C-2.4,31.93,14.34,6.9,41.43,1.37
	c2.79-0.57,5.65-0.88,8.55-0.87c19.23,0.06,38.47,0.01,57.7,0.05c23.92,0.05,44.93,18.67,48.39,42.18
	c3.77,25.64-13,50.5-39.86,55.91c-2.8,0.56-5.66,0.88-8.56,0.86C97.98,99.43,88.31,99.47,78.65,99.47z M78.72,74.51
	c3.7,0,7.4,0.03,11.09-0.01c7.57-0.08,13.33-5.42,13.69-12.9c0.38-7.83,0.43-15.67-0.03-23.49c-0.33-5.52-4.21-11.18-10.62-12.05
	c-8.92-1.22-17.86-1.09-26.73-0.25c-7.22,0.68-11.59,5.64-11.97,12.15c-0.47,7.93-0.37,15.87-0.01,23.79
	c0.28,6.17,4.04,10.76,10.17,12.22C69.03,75.09,73.91,74.66,78.72,74.51z"/>
<path class="st0" d="M99.19,49.72c0,3.56,0.06,7.12-0.01,10.67c-0.12,5.82-3.68,9.56-9.59,9.7c-7.18,0.17-14.38,0.17-21.56,0.01
	c-5.87-0.13-9.47-3.9-9.54-9.75c-0.08-6.91-0.07-13.82,0-20.74c0.06-5.79,3.79-9.63,9.58-9.73c7.08-0.12,14.17-0.13,21.26,0.01
	c6.18,0.12,9.79,3.92,9.87,10.07C99.22,43.22,99.19,46.47,99.19,49.72z M78.87,62.75c8.15-0.71,12.49-5.66,12.77-12.66
	s-5.96-12.86-12.92-12.84C72,37.27,65.75,43.45,65.9,49.93C66.07,57.05,71.94,62.85,78.87,62.75z M94.97,37.15
	c-0.03-1.9-0.76-3.17-2.65-3.23c-1.76-0.05-2.93,0.86-3.02,2.72c-0.09,1.81,0.76,2.93,2.64,3.02
	C93.77,39.75,94.82,38.84,94.97,37.15z"/>
<path class="st0" d="M87.13,49.91c0.09,4.43-3.89,8.45-8.37,8.44c-4.36-0.01-8.08-3.74-8.23-8.25c-0.14-4.27,3.67-8.28,8.02-8.44
	C82.97,41.5,87.03,45.41,87.13,49.91z"/>
</svg>
