<?xml version="1.0" encoding="utf-8"?>
<!-- Generator: Adobe Illustrator 27.8.1, SVG Export Plug-In . SVG Version: 6.00 Build 0)  -->
<svg version="1.1" id="Lager_1" xmlns="http://www.w3.org/2000/svg" xmlns:xlink="http://www.w3.org/1999/xlink" x="0px" y="0px"
	 viewBox="0 0 1200 2350" style="enable-background:new 0 0 1200 2350;" xml:space="preserve">
<style type="text/css">
	.st0{display:none;stroke:#387264;stroke-width:2;stroke-miterlimit:10;}
	.st1{fill:#387264;}
	.st2{fill:#FFFFFF;}
	.st3{font-family:'BaskOldFace';}
	.st4{font-size:120px;}
</style>
<rect width="1210.2" height="2350"/>
<g id="Lager_1_00000169553045742445978820000008252203156978051218_">
	<rect x="162.3" y="106.1" class="st0" width="1200" height="2350"/>
	<g>
		<g>
			<path class="st1" d="M725.8,1272.7c-13.9,18.3-27.3,36.9-40.2,56c-12.9,19-25.2,38.4-37,58.2c-11.8,19.8-23.1,39.9-33.8,60.4
				c-10.7,20.3-20.8,41-30.3,61.9s-18.5,42.2-26.8,63.6c-1,2.7-2.1,5.3-3.1,8c-0.5,1.3,0.5,2.7,1.8,3.1c1.4,0.4,2.6-0.5,3.1-1.8
				c8.2-21.4,16.9-42.7,26.3-63.6c9.3-20.9,19.3-41.5,29.8-61.9c10.5-20.3,21.5-40.4,33.2-60.1c11.7-19.8,23.9-39.3,36.6-58.4
				c12.7-19,25.9-37.7,39.7-56c1.7-2.3,3.4-4.6,5.2-6.8c0.8-1.1,0.2-2.8-0.9-3.4C727.9,1271,726.6,1271.6,725.8,1272.7L725.8,1272.7
				z"/>
		</g>
	</g>
	<g>
		<g>
			<path class="st1" d="M800.4,1331.9c10.7,17.5,21.1,35.2,31.2,53.1c10.1,17.8,20,35.9,29.5,54c9.6,18.2,18.9,36.6,28,55.2
				c9,18.4,17.7,37,26.1,55.8c8.4,18.7,16.5,37.5,24.3,56.4c1,2.4,2,4.8,2.9,7.1c0.5,1.2,1.7,2.1,3.1,1.8c1.2-0.3,2.3-1.8,1.8-3.1
				c-7.8-19.1-15.9-38.1-24.3-57c-8.4-18.8-17-37.5-26-56.1s-18.2-37-27.7-55.3s-19.3-36.4-29.5-54.4s-20.5-35.8-31.2-53.4
				c-1.3-2.2-2.7-4.4-4-6.6C803,1326.6,798.7,1329.1,800.4,1331.9L800.4,1331.9z"/>
		</g>
	</g>
	<g>
		<g>
			<path class="st1" d="M383.1,887.4C421,873,459,859,497.2,845.3c38.1-13.7,76.4-27,114.8-40c38.2-13,76.5-25.6,114.9-37.8
				c38.6-12.3,77.3-24.3,116.1-36c38.8-11.6,77.7-22.9,116.6-33.9c4.8-1.3,9.6-2.7,14.4-4c3.1-0.9,1.8-5.7-1.3-4.8
				c-39,10.9-77.9,22.1-116.7,33.6s-77.5,23.5-116.2,35.7c-38.4,12.2-76.8,24.7-115,37.6c-38.4,12.9-76.7,26.2-114.9,39.8
				s-76.2,27.5-114.1,41.8c-4.7,1.8-9.3,3.5-14,5.3C378.8,883.8,380,888.6,383.1,887.4L383.1,887.4z"/>
		</g>
	</g>
	<g>
		<g>
			<path class="st1" d="M253.6,885c4.9,47,10.3,93.9,16.4,140.8c6,46.6,12.5,93.1,19.5,139.5c4,26.1,8.1,52.2,12.4,78.2
				c0.5,3.2,5.3,1.8,4.8-1.3c-7.7-46.3-14.8-92.7-21.4-139.2c-6.5-46.3-12.5-92.7-18-139.1c-3.1-26.3-6-52.6-8.8-78.9
				C258.3,881.9,253.3,881.8,253.6,885L253.6,885z"/>
		</g>
	</g>
	<g>
		<path class="st2" d="M191.6,1250.3c213.7,113.4,427,227.8,639.7,343.1"/>
		<g>
			<path class="st1" d="M190.3,1252.4c41.6,22.1,83.2,44.2,124.8,66.4c41.8,22.3,83.5,44.6,125.3,66.9
				c41.5,22.2,83.1,44.5,124.6,66.8c41.7,22.4,83.4,44.8,125,67.3c41.5,22.4,82.9,44.8,124.3,67.2c5.2,2.8,10.5,5.7,15.7,8.5
				c2.8,1.5,5.4-2.8,2.5-4.3c-41.4-22.4-82.9-44.9-124.3-67.2c-41.7-22.5-83.3-44.9-125-67.3c-41.5-22.3-83-44.6-124.6-66.8
				c-41.7-22.3-83.5-44.6-125.2-66.9c-41.6-22.2-83.2-44.3-124.8-66.4c-5.2-2.8-10.5-5.6-15.8-8.4
				C190,1246.6,187.5,1250.9,190.3,1252.4L190.3,1252.4z"/>
		</g>
	</g>
	<g>
		<g>
			<path class="st1" d="M861.3,1088.7c9.3-27.8,19.3-55.3,29.9-82.7c10.6-27.3,21.9-54.4,33.8-81.2c11.8-26.7,24.3-53.1,37.4-79.2
				c13.1-26.2,26.9-52.1,41.2-77.7c14.3-25.5,29.3-50.8,44.8-75.6c1.9-3,3.8-6.1,5.8-9.2c1.7-2.7-2.6-5.2-4.3-2.5
				c-15.7,24.9-30.9,50.1-45.4,75.7c-14.5,25.5-28.4,51.3-41.6,77.4c-13.3,26.2-26,52.8-38.1,79.6c-12,26.7-23.4,53.7-34.2,80.9
				c-10.8,27.4-21,55-30.5,82.8c-1.2,3.4-2.3,6.8-3.5,10.2C855.4,1090.5,860.3,1091.8,861.3,1088.7L861.3,1088.7z"/>
		</g>
	</g>
</g>
<g id="Lager_4">
	<text transform="matrix(1 0 0 1 453.8516 604.1361)" class="st2 st3 st4">”</text>
	<text transform="matrix(1 0 0 1 734.0275 648.3125)" class="st2 st3 st4">”</text>
	<text transform="matrix(1 0 0 1 671.3491 816.3524)" class="st2 st3 st4">”</text>
	<text transform="matrix(1 0 0 1 884.0407 891.8872)" class="st2 st3 st4">”</text>
	<text transform="matrix(1 0 0 1 138.8276 1388.3705)" class="st2 st3 st4">”</text>
	<text transform="matrix(1 0 0 1 397.2598 1480.1426)" class="st2 st3 st4">”</text>
</g>
<g id="Lager_2_00000163053079791302403310000015947734848987703953_">
	<g id="Lager_3">
	</g>
	<g>
		<path class="st2" d="M515.3,561c0.5-1,1.1-2.2,1.8-3.5l8.1-15.1h1.7l-11.3,20.7h-1.2l-2.6-20.7h1.4l1.7,13.5
			C515,557.9,515.2,559.6,515.3,561L515.3,561z"/>
		<path class="st2" d="M530.8,563.4c-1.6,0-2.9-0.5-3.8-1.6c-0.9-1-1.4-2.5-1.4-4.3c0-1.7,0.3-3.3,1-4.9s1.6-2.8,2.8-3.7
			c1.2-0.9,2.5-1.4,3.9-1.4c1.1,0,1.9,0.3,2.6,0.9s1,1.4,1,2.4c0,1.7-0.8,3-2.3,3.9s-3.8,1.3-6.9,1.3h-0.5c-0.1,0.4-0.1,0.9-0.1,1.4
			c0,1.6,0.3,2.7,1,3.6c0.7,0.8,1.7,1.2,3,1.2c1.2,0,2.5-0.3,3.9-1v1.3C533.7,563.1,532.3,563.4,530.8,563.4z M533.1,548.7
			c-1.2,0-2.4,0.5-3.4,1.6c-1.1,1.1-1.8,2.5-2.3,4.4h0.7c4.9,0,7.3-1.3,7.3-3.8c0-0.6-0.2-1.2-0.6-1.6
			C534.3,548.9,533.8,548.7,533.1,548.7z"/>
		<path class="st2" d="M547.3,563.1l2.1-9.5c0.2-1.2,0.4-1.9,0.4-2.3c0-1.7-0.7-2.6-2.2-2.6c-1,0-1.9,0.3-2.8,1
			c-0.9,0.6-1.6,1.5-2.3,2.7c-0.7,1.2-1.1,2.5-1.4,4.1l-1.4,6.7h-1.4l3.3-15.4h1.1l-0.5,3h0.1c0.8-1.1,1.6-1.9,2.6-2.4s2-0.8,3-0.8
			s1.8,0.3,2.3,0.9s0.8,1.6,0.8,2.8h0.1c0.7-1.2,1.6-2.1,2.6-2.8c1-0.6,2-0.9,3.1-0.9s2,0.3,2.6,0.9c0.6,0.6,0.9,1.4,0.9,2.5
			c0,0.3,0,0.5,0,0.8s-0.1,0.8-0.3,1.7l-2.2,9.8h-1.4l2.1-9.6c0.2-1.1,0.4-2,0.4-2.5c0-0.7-0.2-1.3-0.6-1.7c-0.4-0.4-1-0.6-1.7-0.6
			c-1.5,0-2.8,0.6-3.9,1.9c-1.1,1.3-1.9,3-2.4,5.1l-1.5,7.3h-1.5V563.1z"/>
		<path class="st2" d="M578.9,547.5c2.2,0,3.5,1,4,3.1h0.1l0.8-2.9h1.1l-3.2,15.4h-1.2l0.6-3.9H581c-0.8,1.3-1.7,2.4-2.6,3.1
			s-2.1,1.1-3.4,1.1c-2.7,0-4-1.8-4-5.3c0-1.9,0.4-3.6,1.1-5.3s1.7-3,2.8-3.9C576.1,547.9,577.4,547.5,578.9,547.5z M575.3,562.1
			c0.8,0,1.7-0.3,2.5-0.9c0.8-0.6,1.6-1.4,2.3-2.4s1.2-2.1,1.5-3.3s0.5-2.2,0.5-3c0-0.7-0.1-1.4-0.4-2c-0.2-0.6-0.6-1.1-1.1-1.4
			c-0.5-0.3-1.1-0.5-1.8-0.5c-1.2,0-2.2,0.4-3.2,1.2s-1.7,1.9-2.3,3.5c-0.6,1.5-0.9,3.1-0.9,4.6c0,1.4,0.2,2.5,0.7,3.2
			C573.7,561.8,574.4,562.1,575.3,562.1z M576.6,543.8c0-0.5,0.1-0.8,0.3-1.1s0.5-0.4,0.8-0.4c0.5,0,0.8,0.3,0.8,0.9
			c0,0.5-0.1,0.8-0.3,1.1s-0.5,0.4-0.8,0.4C576.8,544.7,576.6,544.4,576.6,543.8z M581.4,543.8c0-0.5,0.1-0.8,0.3-1.1
			s0.5-0.4,0.8-0.4c0.5,0,0.8,0.3,0.8,0.9c0,0.5-0.1,0.8-0.3,1.1s-0.5,0.4-0.8,0.4C581.7,544.7,581.4,544.4,581.4,543.8z"/>
		<path class="st2" d="M595.7,547.5c0.7,0,1.2,0.1,1.7,0.2l-0.3,1.3c-0.4-0.1-1-0.2-1.6-0.2c-0.9,0-1.7,0.3-2.5,0.9
			s-1.5,1.5-2.2,2.7s-1.1,2.5-1.4,3.9l-1.4,6.8h-1.4l3.3-15.4h1.1l-0.4,2.9h0.1c0.7-0.9,1.3-1.5,1.7-1.9c0.5-0.4,1-0.7,1.5-0.9
			C594.5,547.6,595.1,547.5,595.7,547.5z"/>
		<path class="st2" d="M613.9,563.1l2.1-9.5c0.2-1.2,0.4-1.9,0.4-2.3c0-1.7-0.7-2.6-2.2-2.6c-1,0-1.9,0.3-2.8,1
			c-0.9,0.6-1.6,1.5-2.3,2.7s-1.1,2.5-1.4,4.1l-1.4,6.7h-1.4l3.3-15.4h1.1l-0.5,3h0.1c0.8-1.1,1.6-1.9,2.6-2.4s2-0.8,3-0.8
			s1.8,0.3,2.3,0.9s0.8,1.6,0.8,2.8h0.1c0.7-1.2,1.6-2.1,2.6-2.8c1-0.6,2-0.9,3.1-0.9s2,0.3,2.6,0.9c0.6,0.6,0.9,1.4,0.9,2.5
			c0,0.3,0,0.5,0,0.8s-0.1,0.8-0.3,1.7l-2.2,9.8H623l2.1-9.6c0.2-1.1,0.4-2,0.4-2.5c0-0.7-0.2-1.3-0.6-1.7c-0.4-0.4-1-0.6-1.7-0.6
			c-1.5,0-2.8,0.6-3.9,1.9c-1.1,1.3-1.9,3-2.4,5.1l-1.5,7.3h-1.5V563.1z"/>
		<path class="st2" d="M637.8,547.4c1.7,0,3,0.5,3.9,1.5s1.4,2.4,1.4,4.2c0,1.9-0.3,3.6-1,5.2c-0.7,1.6-1.6,2.9-2.8,3.7
			s-2.5,1.3-4,1.3c-1.7,0-3.1-0.5-4-1.6c-0.9-1-1.4-2.5-1.4-4.4c0-1.8,0.3-3.5,1-5.1s1.6-2.8,2.8-3.6S636.3,547.4,637.8,547.4z
			 M637.7,548.6c-1.2,0-2.2,0.4-3.2,1.1c-0.9,0.7-1.7,1.8-2.2,3.2c-0.6,1.4-0.8,2.8-0.8,4.4c0,3.2,1.3,4.8,4,4.8
			c1.2,0,2.3-0.4,3.2-1.1c0.9-0.7,1.7-1.8,2.2-3.2c0.6-1.4,0.8-3,0.8-4.7c0-1.5-0.3-2.6-1-3.4S639,548.6,637.7,548.6z M635.2,543.8
			c0-0.5,0.1-0.8,0.3-1.1s0.5-0.4,0.8-0.4c0.5,0,0.8,0.3,0.8,0.9c0,0.5-0.1,0.8-0.3,1.1s-0.5,0.4-0.8,0.4
			C635.5,544.7,635.2,544.4,635.2,543.8z M640.1,543.8c0-0.5,0.1-0.8,0.3-1.1s0.5-0.4,0.8-0.4c0.5,0,0.8,0.3,0.8,0.9
			c0,0.5-0.1,0.8-0.3,1.1s-0.5,0.4-0.8,0.4C640.4,544.7,640.1,544.4,640.1,543.8z"/>
		<path class="st2" d="M654.6,547.5c0.7,0,1.2,0.1,1.7,0.2L656,549c-0.4-0.1-1-0.2-1.6-0.2c-0.9,0-1.7,0.3-2.5,0.9s-1.5,1.5-2.2,2.7
			c-0.6,1.2-1.1,2.5-1.4,3.9l-1.4,6.8h-1.4l3.3-15.4h1.1l-0.4,2.9h0.1c0.7-0.9,1.3-1.5,1.7-1.9c0.5-0.4,1-0.7,1.5-0.9
			S654,547.5,654.6,547.5z"/>
		<path class="st2" d="M664.5,547.5c2.2,0,3.5,1,4,3.1h0.1c0.1-0.6,0.8-3.8,2-9.5h1.4l-4.7,22h-1.2l0.6-3.9h-0.1
			c-1.6,2.8-3.6,4.2-6,4.2c-2.7,0-4-1.8-4-5.3c0-1.8,0.3-3.6,1-5.2c0.7-1.7,1.6-3,2.8-3.9C661.6,548,663,547.5,664.5,547.5z
			 M660.9,562.1c0.8,0,1.7-0.3,2.5-0.9c0.8-0.6,1.6-1.4,2.3-2.4s1.2-2.1,1.5-3.3s0.5-2.2,0.5-3c0-1.2-0.3-2.1-0.9-2.9
			c-0.6-0.7-1.4-1.1-2.4-1.1c-1.2,0-2.2,0.4-3.2,1.2s-1.7,1.9-2.3,3.4s-0.9,3.1-0.9,4.6C658.1,560.7,659,562.1,660.9,562.1z"/>
		<path class="st2" d="M680.5,547.5c2.2,0,3.5,1,4,3.1h0.1l0.8-2.9h1.1l-3.2,15.4h-1.2l0.6-3.9h-0.1c-0.8,1.3-1.7,2.4-2.6,3.1
			s-2.1,1.1-3.4,1.1c-2.7,0-4-1.8-4-5.3c0-1.9,0.4-3.6,1.1-5.3c0.7-1.7,1.7-3,2.8-3.9C677.8,547.9,679.1,547.5,680.5,547.5z
			 M677,562.1c0.8,0,1.7-0.3,2.5-0.9c0.8-0.6,1.6-1.4,2.3-2.4s1.2-2.1,1.5-3.3s0.5-2.2,0.5-3c0-0.7-0.1-1.4-0.4-2
			c-0.2-0.6-0.6-1.1-1.1-1.4c-0.5-0.3-1.1-0.5-1.8-0.5c-1.2,0-2.2,0.4-3.2,1.2c-0.9,0.8-1.7,1.9-2.3,3.5c-0.6,1.5-0.9,3.1-0.9,4.6
			c0,1.4,0.2,2.5,0.7,3.2S676,562.1,677,562.1z"/>
		<path class="st2" d="M697.4,547.5c0.7,0,1.2,0.1,1.7,0.2l-0.3,1.3c-0.4-0.1-1-0.2-1.6-0.2c-0.9,0-1.7,0.3-2.5,0.9
			s-1.5,1.5-2.2,2.7c-0.6,1.2-1.1,2.5-1.4,3.9l-1.4,6.8h-1.4l3.3-15.4h1.1l-0.4,2.9h0.1c0.7-0.9,1.3-1.5,1.7-1.9
			c0.5-0.4,1-0.7,1.5-0.9C696.2,547.6,696.7,547.5,697.4,547.5z"/>
		<path class="st2" d="M704.6,563.4c-1.6,0-2.9-0.5-3.8-1.6c-0.9-1-1.4-2.5-1.4-4.3c0-1.7,0.3-3.3,1-4.9s1.6-2.8,2.8-3.7
			s2.5-1.4,3.9-1.4c1.1,0,1.9,0.3,2.6,0.9s1,1.4,1,2.4c0,1.7-0.8,3-2.3,3.9s-3.8,1.3-6.9,1.3H701c-0.1,0.4-0.1,0.9-0.1,1.4
			c0,1.6,0.3,2.7,1,3.6c0.7,0.8,1.7,1.2,3,1.2c1.2,0,2.5-0.3,3.9-1v1.3C707.5,563.1,706.1,563.4,704.6,563.4z M706.9,548.7
			c-1.2,0-2.4,0.5-3.4,1.6c-1.1,1.1-1.8,2.5-2.3,4.4h0.7c4.9,0,7.3-1.3,7.3-3.8c0-0.6-0.2-1.2-0.6-1.6
			C708.1,548.9,707.5,548.7,706.9,548.7z"/>
		<path class="st2" d="M721.9,563.1l2.1-9.8c0.2-0.9,0.3-1.6,0.3-2.2c0-0.8-0.2-1.3-0.6-1.8s-1-0.6-1.9-0.6c-1.1,0-2.1,0.3-3,0.9
			c-0.9,0.6-1.7,1.5-2.4,2.7c-0.6,1.1-1.1,2.5-1.5,4.1l-1.4,6.8h-1.4l3.3-15.4h1.2l-0.5,3.1h0.1c1.5-2.2,3.5-3.4,5.9-3.4
			c1.2,0,2.1,0.3,2.8,0.9s0.9,1.5,0.9,2.6c0,0.7-0.1,1.5-0.3,2.6l-2.1,9.5L721.9,563.1L721.9,563.1z"/>
		<path class="st2" d="M729.7,562.3c0-0.5,0.1-0.9,0.4-1.3c0.2-0.3,0.6-0.5,1-0.5c0.6,0,0.9,0.3,0.9,1c0,0.5-0.1,0.9-0.3,1.3
			c-0.2,0.3-0.5,0.5-1,0.5C730,563.3,729.7,563,729.7,562.3z M730.7,558l0.1-0.4c0.3-1.2,0.7-2.2,1.2-2.9s1.2-1.4,2.2-2.1
			c1.1-0.8,1.9-1.5,2.5-2.1c0.5-0.6,0.9-1.2,1.2-1.8s0.4-1.3,0.4-2c0-1-0.3-1.8-1-2.4c-0.6-0.6-1.5-0.9-2.6-0.9
			c-1.3,0-2.8,0.5-4.3,1.4l-0.6-1.2c0.8-0.5,1.6-0.8,2.4-1.1c0.8-0.3,1.7-0.4,2.7-0.4c1.5,0,2.7,0.4,3.5,1.2
			c0.9,0.8,1.3,1.9,1.3,3.2c0,1.2-0.3,2.3-0.9,3.3s-1.7,2.1-3.3,3.2c-0.8,0.6-1.4,1.1-1.9,1.5c-0.4,0.4-0.8,0.9-1,1.3
			c-0.2,0.4-0.5,1.1-0.7,2h-1.2V558z"/>
	</g>
	<g>
		<path class="st2" d="M731.2,771.6c0.5-1,1.1-2.2,1.8-3.5l8.1-15.1h1.7l-11.3,20.7h-1.2l-2.6-20.7h1.4l1.7,13.5
			C730.9,768.5,731.1,770.2,731.2,771.6L731.2,771.6z"/>
		<path class="st2" d="M749.3,758.1c2.2,0,3.5,1,4,3.1h0.1l0.8-2.9h1.1l-3.2,15.4h-1.2l0.6-3.9h-0.1c-0.8,1.3-1.7,2.4-2.6,3.1
			c-1,0.7-2.1,1.1-3.4,1.1c-2.7,0-4-1.8-4-5.3c0-1.9,0.4-3.6,1.1-5.3s1.7-3,2.8-3.9C746.5,758.5,747.8,758.1,749.3,758.1z
			 M745.8,772.7c0.8,0,1.7-0.3,2.5-0.9c0.8-0.6,1.6-1.4,2.3-2.4s1.2-2.1,1.5-3.3s0.5-2.2,0.5-3c0-0.7-0.1-1.4-0.4-2
			c-0.2-0.6-0.6-1.1-1.1-1.4c-0.5-0.3-1.1-0.5-1.8-0.5c-1.2,0-2.2,0.4-3.2,1.2c-0.9,0.8-1.7,1.9-2.3,3.5c-0.6,1.5-0.9,3.1-0.9,4.6
			c0,1.4,0.2,2.5,0.7,3.2C744.1,772.4,744.8,772.7,745.8,772.7z"/>
		<path class="st2" d="M765.3,758.1c2.2,0,3.5,1,4,3.1h0.1c0.1-0.6,0.8-3.8,2-9.5h1.4l-4.7,22h-1.2l0.6-3.9h-0.1
			c-1.6,2.8-3.6,4.2-6,4.2c-2.7,0-4-1.8-4-5.3c0-1.8,0.3-3.6,1-5.2s1.6-3,2.8-3.9C762.5,758.6,763.8,758.1,765.3,758.1z
			 M761.8,772.7c0.8,0,1.7-0.3,2.5-0.9c0.8-0.6,1.6-1.4,2.3-2.4s1.2-2.1,1.5-3.3s0.5-2.2,0.5-3c0-1.2-0.3-2.1-0.9-2.9
			c-0.6-0.7-1.4-1.1-2.4-1.1c-1.2,0-2.2,0.4-3.2,1.2c-0.9,0.8-1.7,1.9-2.3,3.4s-0.9,3.1-0.9,4.6C759,771.3,759.9,772.7,761.8,772.7z
			"/>
		<path class="st2" d="M790.4,773.7l2.1-9.8c0.2-0.9,0.3-1.6,0.3-2.2c0-0.8-0.2-1.3-0.6-1.8c-0.4-0.4-1-0.6-1.9-0.6
			c-1.1,0-2.1,0.3-3,0.9c-0.9,0.6-1.7,1.5-2.4,2.7c-0.6,1.1-1.1,2.5-1.5,4l-1.4,6.8h-1.4l4.7-22h1.4l-1.2,5.8
			c-0.4,1.9-0.7,3.2-0.9,4h0.1c0.7-1.1,1.6-1.9,2.6-2.5s2.1-0.9,3.2-0.9c1.2,0,2.1,0.3,2.7,0.9c0.6,0.6,1,1.5,1,2.6
			c0,0.7-0.1,1.5-0.3,2.6l-2.1,9.5H790.4z"/>
		<path class="st2" d="M805.1,758.1c2.2,0,3.5,1,4,3.1h0.1l0.8-2.9h1.1l-3.2,15.4h-1.2l0.6-3.9h-0.1c-0.8,1.3-1.7,2.4-2.6,3.1
			c-1,0.7-2.1,1.1-3.4,1.1c-2.7,0-4-1.8-4-5.3c0-1.9,0.4-3.6,1.1-5.3s1.7-3,2.8-3.9C802.3,758.5,803.7,758.1,805.1,758.1z
			 M801.6,772.7c0.8,0,1.7-0.3,2.5-0.9c0.8-0.6,1.6-1.4,2.3-2.4s1.2-2.1,1.5-3.3s0.5-2.2,0.5-3c0-0.7-0.1-1.4-0.4-2
			c-0.2-0.6-0.6-1.1-1.1-1.4c-0.5-0.3-1.1-0.5-1.8-0.5c-1.2,0-2.2,0.4-3.2,1.2c-0.9,0.8-1.7,1.9-2.3,3.5c-0.6,1.5-0.9,3.1-0.9,4.6
			c0,1.4,0.2,2.5,0.7,3.2C799.9,772.4,800.6,772.7,801.6,772.7z M802.8,754.4c0-0.5,0.1-0.8,0.3-1.1s0.5-0.4,0.8-0.4
			c0.5,0,0.8,0.3,0.8,0.9c0,0.5-0.1,0.8-0.3,1.1s-0.5,0.4-0.8,0.4C803,755.3,802.8,755,802.8,754.4z M807.6,754.4
			c0-0.5,0.1-0.8,0.3-1.1s0.5-0.4,0.8-0.4c0.5,0,0.8,0.3,0.8,0.9c0,0.5-0.1,0.8-0.3,1.1s-0.5,0.4-0.8,0.4
			C807.9,755.3,807.6,755,807.6,754.4z"/>
		<path class="st2" d="M822.7,773.7l2.1-9.8c0.2-0.9,0.3-1.6,0.3-2.2c0-0.8-0.2-1.3-0.6-1.8c-0.4-0.4-1-0.6-1.9-0.6
			c-1.1,0-2.1,0.3-3,0.9s-1.7,1.5-2.4,2.7c-0.6,1.1-1.1,2.5-1.5,4.1l-1.4,6.8h-1.4l3.3-15.4h1.2l-0.5,3.1h0.1
			c1.5-2.2,3.5-3.4,5.9-3.4c1.2,0,2.1,0.3,2.8,0.9c0.6,0.6,0.9,1.5,0.9,2.6c0,0.7-0.1,1.5-0.3,2.6l-2.1,9.5L822.7,773.7L822.7,773.7
			z"/>
		<path class="st2" d="M837.3,758.1c2.2,0,3.5,1,4,3.1h0.1c0.1-0.6,0.8-3.8,2-9.5h1.4l-4.7,22h-1.2l0.6-3.9h-0.1
			c-1.6,2.8-3.6,4.2-6,4.2c-2.7,0-4-1.8-4-5.3c0-1.8,0.3-3.6,1-5.2s1.6-3,2.8-3.9C834.5,758.6,835.8,758.1,837.3,758.1z
			 M833.8,772.7c0.8,0,1.7-0.3,2.5-0.9c0.8-0.6,1.6-1.4,2.3-2.4s1.2-2.1,1.5-3.3s0.5-2.2,0.5-3c0-1.2-0.3-2.1-0.9-2.9
			c-0.6-0.7-1.4-1.1-2.4-1.1c-1.2,0-2.2,0.4-3.2,1.2c-0.9,0.8-1.7,1.9-2.3,3.4s-0.9,3.1-0.9,4.6
			C830.9,771.3,831.9,772.7,833.8,772.7z"/>
		<path class="st2" d="M850.7,774c-1.6,0-2.9-0.5-3.8-1.6c-0.9-1-1.4-2.5-1.4-4.3c0-1.7,0.3-3.3,1-4.9c0.7-1.6,1.6-2.8,2.8-3.7
			s2.5-1.4,3.9-1.4c1.1,0,1.9,0.3,2.6,0.9c0.6,0.6,1,1.4,1,2.4c0,1.7-0.8,3-2.3,3.9s-3.8,1.3-6.9,1.3h-0.5c-0.1,0.4-0.1,0.9-0.1,1.4
			c0,1.6,0.3,2.7,1,3.6c0.7,0.8,1.7,1.2,3,1.2c1.2,0,2.5-0.3,3.9-1v1.3C853.6,773.7,852.2,774,850.7,774z M853,759.3
			c-1.2,0-2.4,0.5-3.4,1.6c-1.1,1.1-1.8,2.5-2.3,4.4h0.7c4.9,0,7.3-1.3,7.3-3.8c0-0.6-0.2-1.2-0.6-1.6
			C854.3,759.5,853.7,759.3,853,759.3z"/>
		<path class="st2" d="M874,758.1c2.2,0,3.5,1,4,3.1h0.1c0.1-0.6,0.8-3.8,2-9.5h1.4l-4.7,22h-1.2l0.6-3.9h-0.1
			c-1.6,2.8-3.6,4.2-6,4.2c-2.7,0-4-1.8-4-5.3c0-1.8,0.3-3.6,1-5.2s1.6-3,2.8-3.9C871.2,758.6,872.5,758.1,874,758.1z M870.5,772.7
			c0.8,0,1.7-0.3,2.5-0.9c0.8-0.6,1.6-1.4,2.3-2.4s1.2-2.1,1.5-3.3s0.5-2.2,0.5-3c0-1.2-0.3-2.1-0.9-2.9c-0.6-0.7-1.4-1.1-2.4-1.1
			c-1.2,0-2.2,0.4-3.2,1.2c-0.9,0.8-1.7,1.9-2.3,3.4s-0.9,3.1-0.9,4.6C867.7,771.3,868.6,772.7,870.5,772.7z"/>
		<path class="st2" d="M887.4,774c-1.6,0-2.9-0.5-3.8-1.6c-0.9-1-1.4-2.5-1.4-4.3c0-1.7,0.3-3.3,1-4.9c0.7-1.6,1.6-2.8,2.8-3.7
			s2.5-1.4,3.9-1.4c1.1,0,1.9,0.3,2.6,0.9c0.6,0.6,1,1.4,1,2.4c0,1.7-0.8,3-2.3,3.9s-3.8,1.3-6.9,1.3h-0.5c-0.1,0.4-0.1,0.9-0.1,1.4
			c0,1.6,0.3,2.7,1,3.6c0.7,0.8,1.7,1.2,3,1.2c1.2,0,2.5-0.3,3.9-1v1.3C890.4,773.7,888.9,774,887.4,774z M889.7,759.3
			c-1.2,0-2.4,0.5-3.4,1.6c-1.1,1.1-1.8,2.5-2.3,4.4h0.7c4.9,0,7.3-1.3,7.3-3.8c0-0.6-0.2-1.2-0.6-1.6
			C891,759.5,890.4,759.3,889.7,759.3z"/>
		<path class="st2" d="M904.8,773.7l2.1-9.8c0.2-0.9,0.3-1.6,0.3-2.2c0-0.8-0.2-1.3-0.6-1.8c-0.4-0.4-1-0.6-1.9-0.6
			c-1.1,0-2.1,0.3-3,0.9s-1.7,1.5-2.4,2.7c-0.6,1.1-1.1,2.5-1.5,4.1l-1.4,6.8H895l3.3-15.4h1.2l-0.5,3.1h0.1
			c1.5-2.2,3.5-3.4,5.9-3.4c1.2,0,2.1,0.3,2.8,0.9c0.6,0.6,0.9,1.5,0.9,2.6c0,0.7-0.1,1.5-0.3,2.6l-2.1,9.5L904.8,773.7L904.8,773.7
			z"/>
		<path class="st2" d="M757.2,792.9c2.2,0,3.5,1,4,3.1h0.1c0.1-0.6,0.8-3.8,2-9.5h1.4l-4.7,22h-1.2l0.6-3.9h-0.1
			c-1.6,2.8-3.6,4.2-6,4.2c-2.7,0-4-1.8-4-5.3c0-1.8,0.3-3.6,1-5.2c0.7-1.7,1.6-3,2.8-3.9C754.4,793.4,755.8,792.9,757.2,792.9z
			 M753.7,807.5c0.8,0,1.7-0.3,2.5-0.9c0.8-0.6,1.6-1.4,2.3-2.4s1.2-2.1,1.5-3.3s0.5-2.2,0.5-3c0-1.2-0.3-2.1-0.9-2.9
			c-0.6-0.7-1.4-1.1-2.4-1.1c-1.2,0-2.2,0.4-3.2,1.2c-0.9,0.8-1.7,1.9-2.3,3.4s-0.9,3.1-0.9,4.6
			C750.9,806.1,751.8,807.5,753.7,807.5z"/>
		<path class="st2" d="M773.3,792.9c2.2,0,3.5,1,4,3.1h0.1l0.8-2.9h1.1l-3.2,15.4h-1.2l0.6-3.9h-0.1c-0.8,1.3-1.7,2.4-2.6,3.1
			c-1,0.7-2.1,1.1-3.4,1.1c-2.7,0-4-1.8-4-5.3c0-1.9,0.4-3.6,1.1-5.3s1.7-3,2.8-3.9C770.5,793.3,771.9,792.9,773.3,792.9z
			 M769.8,807.5c0.8,0,1.7-0.3,2.5-0.9c0.8-0.6,1.6-1.4,2.3-2.4s1.2-2.1,1.5-3.3s0.5-2.2,0.5-3c0-0.7-0.1-1.4-0.4-2
			c-0.2-0.6-0.6-1.1-1.1-1.4c-0.5-0.3-1.1-0.5-1.8-0.5c-1.2,0-2.2,0.4-3.2,1.2c-0.9,0.8-1.7,1.9-2.3,3.5c-0.6,1.5-0.9,3.1-0.9,4.6
			c0,1.4,0.2,2.5,0.7,3.2C768.1,807.2,768.8,807.5,769.8,807.5z M771,789.2c0-0.5,0.1-0.8,0.3-1.1s0.5-0.4,0.8-0.4
			c0.5,0,0.8,0.3,0.8,0.9c0,0.5-0.1,0.8-0.3,1.1s-0.5,0.4-0.8,0.4C771.2,790.1,771,789.8,771,789.2z M775.8,789.2
			c0-0.5,0.1-0.8,0.3-1.1s0.5-0.4,0.8-0.4c0.5,0,0.8,0.3,0.8,0.9c0,0.5-0.1,0.8-0.3,1.1s-0.5,0.4-0.8,0.4
			C776.1,790.1,775.8,789.8,775.8,789.2z"/>
		<path class="st2" d="M790.2,792.9c0.7,0,1.2,0.1,1.7,0.2l-0.3,1.3c-0.4-0.1-1-0.2-1.6-0.2c-0.9,0-1.7,0.3-2.5,0.9
			c-0.8,0.6-1.5,1.5-2.2,2.7c-0.6,1.2-1.1,2.5-1.4,3.9l-1.4,6.8h-1.4l3.3-15.4h1.1l-0.4,2.9h0.1c0.7-0.9,1.3-1.5,1.7-1.9
			c0.5-0.4,1-0.7,1.5-0.9C788.9,793,789.5,792.9,790.2,792.9z"/>
		<path class="st2" d="M802.1,801.8l8.6-8.6h1.8l-6.7,6.6l4.2,8.8h-1.5l-3.7-7.9l-2.9,2.7l-1.1,5.3h-1.4l4.7-22h1.4l-2.4,11
			L802.1,801.8L802.1,801.8z"/>
		<path class="st2" d="M815.5,808.5l-2.4-15.4h1.4l1.5,10.4c0.2,1.6,0.4,2.8,0.5,3.6h0.1c0.5-1.1,1.1-2.3,1.8-3.6l5.8-10.4h1.4
			l-8.5,15.4H815.5z"/>
		<path class="st2" d="M833.6,792.9c2.2,0,3.5,1,4,3.1h0.1l0.8-2.9h1.1l-3.2,15.4h-1.2l0.6-3.9h-0.1c-0.8,1.3-1.7,2.4-2.6,3.1
			s-2.1,1.1-3.4,1.1c-2.7,0-4-1.8-4-5.3c0-1.9,0.4-3.6,1.1-5.3c0.7-1.7,1.7-3,2.8-3.9C830.8,793.3,832.1,792.9,833.6,792.9z
			 M830,807.5c0.8,0,1.7-0.3,2.5-0.9c0.8-0.6,1.6-1.4,2.3-2.4s1.2-2.1,1.5-3.3s0.5-2.2,0.5-3c0-0.7-0.1-1.4-0.4-2
			c-0.2-0.6-0.6-1.1-1.1-1.4c-0.5-0.3-1.1-0.5-1.8-0.5c-1.2,0-2.2,0.4-3.2,1.2c-0.9,0.8-1.7,1.9-2.3,3.5c-0.6,1.5-0.9,3.1-0.9,4.6
			c0,1.4,0.2,2.5,0.7,3.2C828.4,807.2,829.1,807.5,830,807.5z M831.2,789.2c0-0.5,0.1-0.8,0.3-1.1s0.5-0.4,0.8-0.4
			c0.5,0,0.8,0.3,0.8,0.9c0,0.5-0.1,0.8-0.3,1.1s-0.5,0.4-0.8,0.4C831.5,790.1,831.2,789.8,831.2,789.2z M836.1,789.2
			c0-0.5,0.1-0.8,0.3-1.1s0.5-0.4,0.8-0.4c0.5,0,0.8,0.3,0.8,0.9c0,0.5-0.1,0.8-0.3,1.1s-0.5,0.4-0.8,0.4
			C836.4,790.1,836.1,789.8,836.1,789.2z"/>
		<path class="st2" d="M842.7,808.5h-1.3l4.7-22h1.3L842.7,808.5z"/>
		<path class="st2" d="M849.5,808.5h-1.3l4.7-22h1.3L849.5,808.5z"/>
		<path class="st2" d="M860.4,808.8c-1.6,0-2.9-0.5-3.8-1.6c-0.9-1-1.4-2.5-1.4-4.3c0-1.7,0.3-3.3,1-4.9c0.7-1.6,1.6-2.8,2.8-3.7
			s2.5-1.4,3.9-1.4c1.1,0,1.9,0.3,2.6,0.9c0.6,0.6,1,1.4,1,2.4c0,1.7-0.8,3-2.3,3.9s-3.8,1.3-6.9,1.3h-0.5c-0.1,0.4-0.1,0.9-0.1,1.4
			c0,1.6,0.3,2.7,1,3.6c0.7,0.8,1.7,1.2,3,1.2c1.2,0,2.5-0.3,3.9-1v1.3C863.3,808.5,861.9,808.8,860.4,808.8z M862.7,794.1
			c-1.2,0-2.4,0.5-3.4,1.6c-1.1,1.1-1.8,2.5-2.3,4.4h0.7c4.9,0,7.3-1.3,7.3-3.8c0-0.6-0.2-1.2-0.6-1.6
			C864,794.3,863.4,794.1,862.7,794.1z"/>
		<path class="st2" d="M877.7,808.5l2.1-9.8c0.2-0.9,0.3-1.6,0.3-2.2c0-0.8-0.2-1.3-0.6-1.8c-0.4-0.4-1-0.6-1.9-0.6
			c-1.1,0-2.1,0.3-3,0.9s-1.7,1.5-2.4,2.7c-0.6,1.1-1.1,2.5-1.5,4.1l-1.4,6.8H868l3.3-15.4h1.2l-0.5,3.1h0.1
			c1.5-2.2,3.5-3.4,5.9-3.4c1.2,0,2.1,0.3,2.8,0.9c0.6,0.6,0.9,1.5,0.9,2.6c0,0.7-0.1,1.5-0.3,2.6l-2.1,9.5L877.7,808.5L877.7,808.5
			z"/>
		<path class="st2" d="M885.5,807.7c0-0.5,0.1-0.9,0.4-1.3c0.2-0.3,0.6-0.5,1-0.5c0.6,0,0.9,0.3,0.9,1c0,0.5-0.1,0.9-0.3,1.3
			c-0.2,0.3-0.5,0.5-1,0.5C885.8,808.7,885.5,808.4,885.5,807.7z M886.5,803.4l0.1-0.4c0.3-1.2,0.7-2.2,1.2-2.9s1.2-1.4,2.2-2.1
			c1.1-0.8,1.9-1.5,2.5-2.1c0.5-0.6,0.9-1.2,1.2-1.8s0.4-1.3,0.4-2c0-1-0.3-1.8-1-2.4c-0.6-0.6-1.5-0.9-2.6-0.9
			c-1.3,0-2.8,0.5-4.3,1.4l-0.6-1.2c0.8-0.5,1.6-0.8,2.4-1.1s1.7-0.4,2.7-0.4c1.5,0,2.7,0.4,3.5,1.2c0.9,0.8,1.3,1.9,1.3,3.2
			c0,1.2-0.3,2.3-0.9,3.3s-1.7,2.1-3.3,3.2c-0.8,0.6-1.4,1.1-1.9,1.5c-0.4,0.4-0.8,0.9-1,1.3c-0.2,0.4-0.5,1.1-0.7,2h-1.2V803.4z"/>
	</g>
	<g>
		<path class="st2" d="M212.1,1339.6c0,2.4-0.5,4.6-1.6,6.5c-1,2-2.5,3.4-4.3,4.4s-3.9,1.5-6.3,1.5h-4.7l4.4-20.7h4.3
			c2.7,0,4.7,0.7,6,2.1C211.5,1334.8,212.1,1336.9,212.1,1339.6z M200,1350.8c2.1,0,4-0.4,5.6-1.3s2.8-2.2,3.7-3.9
			c0.9-1.7,1.3-3.7,1.3-5.8c0-4.7-2.2-7.1-6.7-7.1H201l-3.9,18.1L200,1350.8L200,1350.8z"/>
		<path class="st2" d="M218.4,1336.7l-2.2,9.9c-0.2,1-0.3,1.7-0.3,2.2c0,0.7,0.2,1.3,0.7,1.7c0.4,0.4,1.1,0.6,2,0.6
			c1,0,2-0.3,2.9-0.9s1.7-1.5,2.3-2.6s1.1-2.5,1.4-4l1.5-6.9h1.4l-3.3,15.4h-1.1l0.4-2.9H224c-1.6,2.1-3.5,3.1-5.7,3.1
			c-1.2,0-2.2-0.3-2.8-0.9s-1-1.4-1-2.6c0-0.6,0.1-1.4,0.3-2.4l2.1-9.8h1.5V1336.7z"/>
		<path class="st2" d="M240.6,1345.3l8.6-8.6h1.8l-6.7,6.6l4.2,8.8H247l-3.7-7.9l-2.9,2.7l-1.1,5.3h-1.4l4.7-22h1.4l-2.4,11
			L240.6,1345.3L240.6,1345.3z"/>
		<path class="st2" d="M259.4,1336.4c2.2,0,3.5,1,4,3.1h0.1l0.8-2.9h1.1l-3.2,15.4H261l0.6-3.9h-0.1c-0.8,1.3-1.7,2.4-2.6,3.1
			c-0.9,0.7-2.1,1.1-3.4,1.1c-2.7,0-4-1.8-4-5.3c0-1.9,0.4-3.6,1.1-5.3s1.7-3,2.8-3.9C256.6,1336.9,258,1336.4,259.4,1336.4z
			 M255.9,1351.1c0.8,0,1.7-0.3,2.5-0.9c0.8-0.6,1.6-1.4,2.3-2.4c0.7-1,1.2-2.1,1.5-3.3c0.3-1.2,0.5-2.2,0.5-3c0-0.7-0.1-1.4-0.4-2
			s-0.6-1.1-1.1-1.4s-1.1-0.5-1.8-0.5c-1.2,0-2.2,0.4-3.2,1.2c-1,0.8-1.7,1.9-2.3,3.5c-0.6,1.5-0.9,3.1-0.9,4.6
			c0,1.4,0.2,2.5,0.7,3.2S254.9,1351.1,255.9,1351.1z"/>
		<path class="st2" d="M277,1352.1l2.1-9.8c0.2-0.9,0.3-1.6,0.3-2.2c0-0.8-0.2-1.3-0.6-1.8c-0.4-0.4-1-0.6-1.9-0.6
			c-1.1,0-2.1,0.3-3,0.9s-1.7,1.5-2.4,2.7c-0.6,1.1-1.1,2.5-1.5,4.1l-1.4,6.8h-1.4l3.3-15.4h1.2l-0.5,3.1h0.1
			c1.5-2.2,3.5-3.4,5.9-3.4c1.2,0,2.1,0.3,2.8,0.9c0.7,0.6,0.9,1.5,0.9,2.6c0,0.7-0.1,1.5-0.3,2.6l-2.1,9.5L277,1352.1L277,1352.1z"
			/>
		<path class="st2" d="M292.3,1352.1h-1.4l3.3-15.4h1.4L292.3,1352.1z M294.8,1332.7c0-0.5,0.1-0.9,0.3-1.2s0.5-0.5,0.8-0.5
			c0.5,0,0.8,0.3,0.8,1c0,0.5-0.1,1-0.3,1.3c-0.2,0.3-0.5,0.5-0.8,0.5s-0.5-0.1-0.6-0.3C294.9,1333.3,294.8,1333.1,294.8,1332.7z"/>
		<path class="st2" d="M307.4,1352.1l2.1-9.8c0.2-0.9,0.3-1.6,0.3-2.2c0-0.8-0.2-1.3-0.6-1.8c-0.4-0.4-1-0.6-1.9-0.6
			c-1.1,0-2.1,0.3-3,0.9s-1.7,1.5-2.4,2.7c-0.6,1.1-1.1,2.5-1.5,4.1l-1.4,6.8h-1.4l3.3-15.4h1.2l-0.5,3.1h0.1
			c1.5-2.2,3.5-3.4,5.9-3.4c1.2,0,2.1,0.3,2.8,0.9s0.9,1.5,0.9,2.6c0,0.7-0.1,1.5-0.3,2.6l-2.1,9.5L307.4,1352.1L307.4,1352.1z"/>
		<path class="st2" d="M322.6,1336.7l-0.3,1.1h-4l-1.9,9c-0.2,0.9-0.3,1.7-0.3,2.3c0,1.3,0.6,2,1.8,2c0.6,0,1.4-0.1,2.2-0.4v1.2
			c-1,0.3-1.8,0.4-2.4,0.4c-0.9,0-1.7-0.3-2.2-0.8s-0.8-1.3-0.8-2.2c0-0.7,0.1-1.7,0.4-2.9l1.8-8.6h-2.6l0.2-0.9l2.6-0.2l1.4-3.6
			h0.8l-0.8,3.6H322.6z"/>
		<path class="st2" d="M328.1,1352.4c-1.6,0-2.9-0.5-3.8-1.6c-0.9-1-1.4-2.5-1.4-4.3c0-1.7,0.3-3.3,1-4.9s1.6-2.8,2.8-3.7
			c1.2-0.9,2.5-1.4,3.9-1.4c1.1,0,1.9,0.3,2.6,0.9c0.6,0.6,1,1.4,1,2.4c0,1.7-0.8,3-2.3,3.9s-3.8,1.3-6.9,1.3h-0.5
			c-0.1,0.4-0.1,0.9-0.1,1.4c0,1.6,0.3,2.7,1,3.6s1.7,1.2,3,1.2c1.2,0,2.5-0.3,3.9-1v1.3C331.1,1352,329.6,1352.4,328.1,1352.4z
			 M330.4,1337.7c-1.2,0-2.4,0.5-3.4,1.6c-1.1,1.1-1.8,2.5-2.3,4.4h0.7c4.9,0,7.3-1.3,7.3-3.8c0-0.6-0.2-1.2-0.6-1.6
			S331.1,1337.7,330.4,1337.7z"/>
		<path class="st2" d="M340.1,1359c-0.5,0-0.9-0.1-1.4-0.3v-1.3c0.5,0.2,1,0.2,1.4,0.2c0.8,0,1.5-0.3,1.9-0.8s0.8-1.4,1.1-2.6
			l3.5-16.5h-2.9l0.2-0.9l2.9-0.2l0.5-2.3c0.3-1.6,0.9-2.7,1.6-3.5c0.8-0.7,1.8-1.1,3.2-1.1c0.7,0,1.5,0.1,2.4,0.4l-0.4,1.1
			c-0.8-0.3-1.5-0.4-2.1-0.4c-0.9,0-1.6,0.3-2.2,0.8c-0.5,0.5-0.9,1.3-1.2,2.5l-0.5,2.3h3.5l-0.2,1.1h-3.5l-3.6,16.9
			c-0.3,1.5-0.8,2.6-1.5,3.3C342.2,1358.7,341.3,1359,340.1,1359z M352.6,1352.1h-1.3l4.7-22h1.3L352.6,1352.1z"/>
		<path class="st2" d="M358.7,1336.7h1.4l1.2,7.8c0.5,3.3,0.7,5.4,0.8,6.4h0.2c0.4-1,1.3-2.7,2.6-5.2l4.9-8.9h1.5l-10.1,18.3
			c-0.7,1.2-1.3,2-1.7,2.5c-0.5,0.5-1,0.9-1.6,1.1c-0.6,0.3-1.3,0.4-2.1,0.4c-0.6,0-1.3-0.1-1.8-0.3v-1.3c0.7,0.3,1.3,0.4,1.9,0.4
			c0.8,0,1.4-0.2,2.1-0.7c0.6-0.5,1.2-1.2,1.8-2.3s1.1-2,1.4-2.6L358.7,1336.7z"/>
		<path class="st2" d="M375.6,1359c-0.5,0-0.9-0.1-1.4-0.3v-1.3c0.5,0.2,1,0.2,1.4,0.2c0.8,0,1.5-0.3,1.9-0.8s0.8-1.4,1.1-2.6
			l3.5-16.5h-2.9l0.2-0.9l2.9-0.2l0.5-2.3c0.3-1.6,0.9-2.7,1.6-3.5c0.8-0.7,1.8-1.1,3.2-1.1c0.7,0,1.5,0.1,2.4,0.4l-0.4,1.1
			c-0.8-0.3-1.5-0.4-2.1-0.4c-0.9,0-1.6,0.3-2.2,0.8c-0.5,0.5-0.9,1.3-1.2,2.5l-0.5,2.3h3.5l-0.2,1.1h-3.5l-3.6,16.9
			c-0.3,1.5-0.8,2.6-1.5,3.3C377.7,1358.7,376.8,1359,375.6,1359z"/>
		<path class="st2" d="M395.8,1336.4c0.7,0,1.2,0.1,1.7,0.2l-0.3,1.3c-0.4-0.1-1-0.2-1.6-0.2c-0.9,0-1.7,0.3-2.5,0.9
			s-1.5,1.5-2.2,2.7s-1.1,2.5-1.4,3.9l-1.4,6.8h-1.4l3.3-15.4h1.1l-0.4,2.9h0.1c0.7-0.9,1.3-1.5,1.7-1.9s1-0.7,1.5-0.9
			C394.6,1336.5,395.1,1336.4,395.8,1336.4z"/>
		<path class="st2" d="M405.6,1336.4c2.2,0,3.5,1,4,3.1h0.1l0.8-2.9h1.1l-3.2,15.4h-1.2l0.6-3.9h-0.1c-0.8,1.3-1.7,2.4-2.6,3.1
			s-2.1,1.1-3.4,1.1c-2.7,0-4-1.8-4-5.3c0-1.9,0.4-3.6,1.1-5.3s1.7-3,2.8-3.9C402.9,1336.9,404.2,1336.4,405.6,1336.4z
			 M402.1,1351.1c0.8,0,1.7-0.3,2.5-0.9s1.6-1.4,2.3-2.4c0.7-1,1.2-2.1,1.5-3.3s0.5-2.2,0.5-3c0-0.7-0.1-1.4-0.4-2s-0.6-1.1-1.1-1.4
			s-1.1-0.5-1.8-0.5c-1.2,0-2.2,0.4-3.2,1.2s-1.7,1.9-2.3,3.5c-0.6,1.5-0.9,3.1-0.9,4.6c0,1.4,0.2,2.5,0.7,3.2
			S401.1,1351.1,402.1,1351.1z M409.5,1331.6c0,0.9-0.3,1.6-0.8,2.1s-1.2,0.8-2.1,0.8s-1.6-0.2-2.1-0.7s-0.8-1.2-0.8-2.1
			c0-0.8,0.3-1.5,0.8-2c0.6-0.5,1.3-0.8,2.1-0.8c0.8,0,1.5,0.2,2,0.7C409.2,1330,409.5,1330.7,409.5,1331.6z M408.4,1331.6
			c0-0.5-0.2-1-0.5-1.3s-0.7-0.5-1.2-0.5c-0.6,0-1,0.2-1.3,0.5s-0.5,0.8-0.5,1.3s0.2,1,0.5,1.3s0.7,0.5,1.3,0.5c0.5,0,1-0.2,1.3-0.5
			C408.2,1332.6,408.4,1332.1,408.4,1331.6z"/>
		<path class="st2" d="M423.2,1352.1l2.1-9.8c0.2-0.9,0.3-1.6,0.3-2.2c0-0.8-0.2-1.3-0.6-1.8c-0.4-0.4-1-0.6-1.9-0.6
			c-1.1,0-2.1,0.3-3,0.9s-1.7,1.5-2.4,2.7c-0.6,1.1-1.1,2.5-1.5,4.1l-1.4,6.8h-1.4l3.3-15.4h1.2l-0.5,3.1h0.1
			c1.5-2.2,3.5-3.4,5.9-3.4c1.2,0,2.1,0.3,2.8,0.9s0.9,1.5,0.9,2.6c0,0.7-0.1,1.5-0.3,2.6l-2.1,9.5L423.2,1352.1L423.2,1352.1z"/>
		<path class="st2" d="M232.4,1371.2c2.2,0,3.5,1,4,3.1h0.1c0.1-0.6,0.8-3.8,2-9.5h1.4l-4.7,22H234l0.6-3.9h-0.1
			c-1.6,2.8-3.6,4.2-6,4.2c-2.7,0-4-1.8-4-5.3c0-1.8,0.3-3.6,1-5.2c0.7-1.7,1.6-3,2.8-3.9S231,1371.2,232.4,1371.2z M228.9,1385.9
			c0.8,0,1.7-0.3,2.5-0.9s1.6-1.4,2.3-2.4s1.2-2.1,1.5-3.3s0.5-2.2,0.5-3c0-1.2-0.3-2.1-0.9-2.9c-0.6-0.7-1.4-1.1-2.4-1.1
			c-1.2,0-2.2,0.4-3.2,1.2c-0.9,0.8-1.7,1.9-2.3,3.4s-0.9,3.1-0.9,4.6C226.1,1384.5,227,1385.9,228.9,1385.9z"/>
		<path class="st2" d="M245.9,1387.2c-1.6,0-2.9-0.5-3.8-1.6c-0.9-1-1.4-2.5-1.4-4.3c0-1.7,0.3-3.3,1-4.9s1.6-2.8,2.8-3.7
			c1.2-0.9,2.5-1.4,3.9-1.4c1.1,0,1.9,0.3,2.6,0.9c0.6,0.6,1,1.4,1,2.4c0,1.7-0.8,3-2.3,3.9s-3.8,1.3-6.9,1.3h-0.5
			c-0.1,0.4-0.1,0.9-0.1,1.4c0,1.6,0.3,2.7,1,3.6s1.7,1.2,3,1.2c1.2,0,2.5-0.3,3.9-1v1.3C248.8,1386.8,247.4,1387.2,245.9,1387.2z
			 M248.1,1372.5c-1.2,0-2.4,0.5-3.4,1.6c-1.1,1.1-1.8,2.5-2.3,4.4h0.7c4.9,0,7.3-1.3,7.3-3.8c0-0.6-0.2-1.2-0.6-1.6
			S248.8,1372.5,248.1,1372.5z"/>
		<path class="st2" d="M262.2,1371.5l-0.3,1.1h-4l-1.9,9c-0.2,0.9-0.3,1.7-0.3,2.3c0,1.3,0.6,2,1.8,2c0.6,0,1.4-0.1,2.2-0.4v1.2
			c-1,0.3-1.8,0.4-2.4,0.4c-0.9,0-1.7-0.3-2.2-0.8s-0.8-1.3-0.8-2.2c0-0.7,0.1-1.7,0.4-2.9l1.8-8.6H254l0.2-0.9l2.6-0.2l1.4-3.6h0.8
			l-0.8,3.6H262.2z"/>
		<path class="st2" d="M277.9,1371.2c2.2,0,3.5,1,4,3.1h0.1c0.1-0.6,0.8-3.8,2-9.5h1.4l-4.7,22h-1.2l0.6-3.9H280
			c-1.6,2.8-3.6,4.2-6,4.2c-2.7,0-4-1.8-4-5.3c0-1.8,0.3-3.6,1-5.2c0.7-1.7,1.6-3,2.8-3.9C275,1371.8,276.4,1371.2,277.9,1371.2z
			 M274.4,1385.9c0.8,0,1.7-0.3,2.5-0.9c0.8-0.6,1.6-1.4,2.3-2.4c0.7-1,1.2-2.1,1.5-3.3c0.3-1.2,0.5-2.2,0.5-3
			c0-1.2-0.3-2.1-0.9-2.9c-0.6-0.7-1.4-1.1-2.4-1.1c-1.2,0-2.2,0.4-3.2,1.2c-0.9,0.8-1.7,1.9-2.3,3.4s-0.9,3.1-0.9,4.6
			C271.5,1384.5,272.5,1385.9,274.4,1385.9z"/>
		<path class="st2" d="M290,1371.5l-2.2,9.9c-0.2,1-0.3,1.7-0.3,2.2c0,0.7,0.2,1.3,0.7,1.7c0.4,0.4,1.1,0.6,2,0.6c1,0,2-0.3,2.9-0.9
			s1.7-1.5,2.3-2.6c0.6-1.1,1.1-2.5,1.4-4l1.5-6.9h1.4l-3.3,15.4h-1.1l0.4-2.9h-0.1c-1.6,2.1-3.5,3.1-5.7,3.1
			c-1.2,0-2.2-0.3-2.8-0.9s-1-1.4-1-2.6c0-0.6,0.1-1.4,0.3-2.4l2.1-9.8h1.5V1371.5z"/>
		<path class="st2" d="M310.8,1386.9h-1.4l3.3-15.4h1.4L310.8,1386.9z M313.3,1367.5c0-0.5,0.1-0.9,0.3-1.2s0.5-0.5,0.8-0.5
			c0.5,0,0.8,0.3,0.8,1c0,0.5-0.1,1-0.3,1.3c-0.2,0.3-0.5,0.5-0.8,0.5s-0.5-0.1-0.6-0.3C313.4,1368.1,313.3,1367.9,313.3,1367.5z"/>
		<path class="st2" d="M325.9,1386.9l2.1-9.8c0.2-0.9,0.3-1.6,0.3-2.2c0-0.8-0.2-1.3-0.6-1.8c-0.4-0.4-1-0.6-1.9-0.6
			c-1.1,0-2.1,0.3-3,0.9s-1.7,1.5-2.4,2.7c-0.6,1.1-1.1,2.5-1.5,4.1l-1.4,6.8h-1.4l3.3-15.4h1.2l-0.5,3.1h0.1
			c1.5-2.2,3.5-3.4,5.9-3.4c1.2,0,2.1,0.3,2.8,0.9s0.9,1.5,0.9,2.6c0,0.7-0.1,1.5-0.3,2.6l-2.1,9.5L325.9,1386.9L325.9,1386.9z"/>
		<path class="st2" d="M341.1,1371.5l-0.3,1.1h-4l-1.9,9c-0.2,0.9-0.3,1.7-0.3,2.3c0,1.3,0.6,2,1.8,2c0.6,0,1.4-0.1,2.2-0.4v1.2
			c-1,0.3-1.8,0.4-2.4,0.4c-0.9,0-1.7-0.3-2.2-0.8s-0.8-1.3-0.8-2.2c0-0.7,0.1-1.7,0.4-2.9l1.8-8.6h-2.6l0.2-0.9l2.6-0.2l1.4-3.6
			h0.8l-0.8,3.6H341.1z"/>
		<path class="st2" d="M346.6,1387.2c-1.6,0-2.9-0.5-3.8-1.6c-0.9-1-1.4-2.5-1.4-4.3c0-1.7,0.3-3.3,1-4.9s1.6-2.8,2.8-3.7
			c1.2-0.9,2.5-1.4,3.9-1.4c1.1,0,1.9,0.3,2.6,0.9c0.6,0.6,1,1.4,1,2.4c0,1.7-0.8,3-2.3,3.9s-3.8,1.3-6.9,1.3H343
			c-0.1,0.4-0.1,0.9-0.1,1.4c0,1.6,0.3,2.7,1,3.6s1.7,1.2,3,1.2c1.2,0,2.5-0.3,3.9-1v1.3C349.6,1386.8,348.1,1387.2,346.6,1387.2z
			 M348.9,1372.5c-1.2,0-2.4,0.5-3.4,1.6c-1.1,1.1-1.8,2.5-2.3,4.4h0.7c4.9,0,7.3-1.3,7.3-3.8c0-0.6-0.2-1.2-0.6-1.6
			S349.6,1372.5,348.9,1372.5z"/>
		<path class="st2" d="M370.8,1382.7c0,1.4-0.5,2.4-1.5,3.2c-1,0.8-2.3,1.2-4,1.2c-1.6,0-3.1-0.4-4.3-1.1v-1.5
			c0.7,0.4,1.4,0.8,2.2,1c0.7,0.2,1.4,0.4,2.1,0.4c1.3,0,2.3-0.3,3-0.8s1-1.3,1-2.3c0-0.4-0.1-0.7-0.2-1s-0.4-0.6-0.7-0.9
			c-0.3-0.3-1-0.7-1.9-1.2c-1.4-0.8-2.3-1.4-2.8-2.1s-0.7-1.4-0.7-2.3c0-1.2,0.5-2.2,1.4-3s2.2-1.2,3.7-1.2c0.7,0,1.5,0.1,2.2,0.2
			c0.8,0.2,1.5,0.4,2,0.7l-0.5,1.2c-1.3-0.6-2.5-0.9-3.7-0.9c-1.1,0-2,0.2-2.6,0.8c-0.7,0.5-1,1.2-1,2c0,0.5,0.1,0.9,0.2,1.2
			c0.2,0.3,0.4,0.6,0.9,1c0.4,0.3,1,0.7,1.7,1.1c1.1,0.6,1.8,1.1,2.3,1.5c0.4,0.4,0.8,0.8,1,1.2
			C370.7,1381.6,370.8,1382.1,370.8,1382.7z"/>
		<path class="st2" d="M379,1387.2c-1.6,0-2.9-0.5-3.8-1.6c-0.9-1-1.4-2.5-1.4-4.3c0-1.7,0.3-3.3,1-4.9s1.6-2.8,2.8-3.7
			c1.2-0.9,2.5-1.4,3.9-1.4c1.1,0,1.9,0.3,2.6,0.9c0.6,0.6,1,1.4,1,2.4c0,1.7-0.8,3-2.3,3.9s-3.8,1.3-6.9,1.3h-0.5
			c-0.1,0.4-0.1,0.9-0.1,1.4c0,1.6,0.3,2.7,1,3.6s1.7,1.2,3,1.2c1.2,0,2.5-0.3,3.9-1v1.3C381.9,1386.8,380.5,1387.2,379,1387.2z
			 M381.3,1372.5c-1.2,0-2.4,0.5-3.4,1.6c-1.1,1.1-1.8,2.5-2.3,4.4h0.7c4.9,0,7.3-1.3,7.3-3.8c0-0.6-0.2-1.2-0.6-1.6
			S382,1372.5,381.3,1372.5z"/>
		<path class="st2" d="M395.6,1371.2c0.7,0,1.2,0.1,1.7,0.2l-0.3,1.3c-0.4-0.1-1-0.2-1.6-0.2c-0.9,0-1.7,0.3-2.5,0.9
			s-1.5,1.5-2.2,2.7s-1.1,2.5-1.4,3.9l-1.4,6.8h-1.4l3.3-15.4h1.1l-0.4,2.9h0.1c0.7-0.9,1.3-1.5,1.7-1.9s1-0.7,1.5-0.9
			C394.4,1371.3,395,1371.2,395.6,1371.2z"/>
		<path d="M406.3,1371.2c0.7,0,1.2,0.1,1.7,0.2l-0.3,1.3c-0.4-0.1-1-0.2-1.6-0.2c-0.9,0-1.7,0.3-2.5,0.9s-1.5,1.5-2.2,2.7
			s-1.1,2.5-1.4,3.9l-1.4,6.8h-1.4l3.3-15.4h1.1l-0.4,2.9h0.1c0.7-0.9,1.3-1.5,1.7-1.9s1-0.7,1.5-0.9
			C405.1,1371.3,405.6,1371.2,406.3,1371.2z"/>
	</g>
</g>
</svg>
