<?xml version="1.0" encoding="utf-8"?>
<!-- Generator: Adobe Illustrator 27.2.0, SVG Export Plug-In . SVG Version: 6.00 Build 0)  -->
<svg version="1.1" id="Lager_1" xmlns="http://www.w3.org/2000/svg" xmlns:xlink="http://www.w3.org/1999/xlink" x="0px" y="0px"
	 viewBox="0 0 156 100" style="enable-background:new 0 0 156 100;" xml:space="preserve">
<style type="text/css">
	.st0{fill:#FFFFFF;}
</style>
<g>
	<path class="st0" d="M14.09,43.42L7.5,32.71H7.43l0.09,10.71H3.68V27.04h4.51l6.57,10.69h0.07l-0.09-10.69h3.84v16.38H14.09z"/>
	<path class="st0" d="M39.73,35.16c0,1.3-0.22,2.48-0.67,3.55c-0.45,1.07-1.07,1.99-1.86,2.75c-0.79,0.76-1.74,1.35-2.83,1.77
		c-1.1,0.42-2.28,0.62-3.56,0.62s-2.46-0.21-3.55-0.62c-1.09-0.42-2.03-1.01-2.82-1.77s-1.42-1.68-1.86-2.75
		c-0.45-1.07-0.67-2.26-0.67-3.55c0-1.31,0.22-2.5,0.67-3.55c0.45-1.06,1.07-1.96,1.86-2.7s1.74-1.31,2.82-1.71
		c1.09-0.4,2.27-0.6,3.55-0.6s2.47,0.2,3.56,0.6c1.1,0.4,2.04,0.97,2.83,1.71c0.79,0.74,1.42,1.64,1.86,2.7
		C39.51,32.66,39.73,33.85,39.73,35.16z M35.5,35.16c0-0.71-0.12-1.37-0.35-1.99c-0.23-0.62-0.55-1.15-0.96-1.58
		c-0.41-0.44-0.9-0.79-1.48-1.04c-0.58-0.25-1.21-0.38-1.91-0.38c-0.69,0-1.33,0.13-1.9,0.38c-0.57,0.25-1.06,0.6-1.48,1.04
		c-0.42,0.44-0.74,0.97-0.96,1.58c-0.22,0.62-0.34,1.28-0.34,1.99c0,0.74,0.12,1.42,0.35,2.05c0.23,0.62,0.55,1.16,0.96,1.61
		c0.41,0.45,0.9,0.8,1.47,1.05s1.2,0.38,1.9,0.38c0.69,0,1.33-0.13,1.9-0.38c0.57-0.25,1.06-0.61,1.48-1.05s0.74-0.98,0.97-1.61
		C35.38,36.58,35.5,35.9,35.5,35.16z"/>
	<path class="st0" d="M51.81,43.42l-3.56-6.5h-1.35v6.5h-3.86V27.04h6.25c0.79,0,1.55,0.08,2.3,0.24c0.75,0.16,1.42,0.44,2.01,0.82
		c0.59,0.39,1.07,0.9,1.42,1.53c0.35,0.63,0.53,1.42,0.53,2.36c0,1.11-0.3,2.04-0.9,2.8c-0.6,0.76-1.44,1.3-2.5,1.62l4.28,7.01
		H51.81z M51.65,32.06c0-0.39-0.08-0.7-0.24-0.94c-0.16-0.24-0.37-0.42-0.63-0.56s-0.54-0.22-0.86-0.27
		c-0.32-0.05-0.62-0.07-0.92-0.07h-2.12v3.82h1.88c0.33,0,0.66-0.03,1-0.08c0.34-0.05,0.65-0.15,0.93-0.29
		c0.28-0.14,0.51-0.34,0.69-0.6C51.56,32.81,51.65,32.47,51.65,32.06z"/>
	<path class="st0" d="M74.38,35.18c0,1.43-0.27,2.67-0.8,3.71c-0.53,1.04-1.23,1.9-2.11,2.57c-0.87,0.67-1.85,1.17-2.95,1.48
		c-1.1,0.32-2.21,0.47-3.33,0.47h-6.11V27.04H65c1.16,0,2.3,0.14,3.42,0.4c1.13,0.27,2.13,0.72,3.01,1.34
		c0.88,0.62,1.59,1.46,2.13,2.51S74.38,33.64,74.38,35.18z M70.26,35.18c0-0.93-0.15-1.69-0.45-2.3c-0.3-0.61-0.7-1.1-1.2-1.46
		c-0.5-0.36-1.07-0.62-1.71-0.77s-1.3-0.23-1.98-0.23h-1.97V40h1.87c0.71,0,1.39-0.08,2.05-0.24c0.66-0.16,1.23-0.43,1.74-0.8
		s0.9-0.86,1.2-1.48S70.26,36.09,70.26,35.18z"/>
	<path class="st0" d="M89.42,43.13c-1.06,0.49-2.29,0.73-3.68,0.73c-1.26,0-2.43-0.21-3.51-0.62s-2-1.01-2.79-1.77
		s-1.4-1.68-1.85-2.74c-0.45-1.06-0.67-2.24-0.67-3.52c0-1.31,0.23-2.5,0.68-3.56c0.46-1.06,1.08-1.97,1.88-2.72
		c0.8-0.75,1.74-1.32,2.82-1.72c1.08-0.4,2.24-0.6,3.49-0.6c1.16,0,2.29,0.2,3.41,0.61c1.12,0.41,2.02,1.01,2.72,1.79l-2.69,2.68
		c-0.37-0.51-0.86-0.89-1.46-1.13c-0.6-0.25-1.22-0.37-1.85-0.37c-0.69,0-1.33,0.13-1.91,0.38c-0.58,0.25-1.08,0.61-1.49,1.05
		c-0.42,0.45-0.74,0.98-0.97,1.59c-0.23,0.61-0.35,1.28-0.35,2c0,0.74,0.12,1.42,0.35,2.04c0.23,0.62,0.55,1.15,0.96,1.58
		c0.41,0.44,0.9,0.78,1.47,1.03c0.57,0.25,1.2,0.37,1.88,0.37c0.79,0,1.47-0.15,2.06-0.46s1.06-0.71,1.41-1.2l2.75,2.59
		C91.38,41.99,90.48,42.64,89.42,43.13z"/>
	<path class="st0" d="M111.29,35.16c0,1.3-0.22,2.48-0.67,3.55c-0.45,1.07-1.07,1.99-1.86,2.75c-0.79,0.76-1.74,1.35-2.83,1.77
		c-1.1,0.42-2.28,0.62-3.56,0.62s-2.46-0.21-3.55-0.62c-1.09-0.42-2.03-1.01-2.82-1.77c-0.79-0.76-1.42-1.68-1.86-2.75
		c-0.45-1.07-0.67-2.26-0.67-3.55c0-1.31,0.22-2.5,0.67-3.55c0.45-1.06,1.07-1.96,1.86-2.7c0.79-0.74,1.74-1.31,2.82-1.71
		c1.09-0.4,2.27-0.6,3.55-0.6s2.47,0.2,3.56,0.6c1.09,0.4,2.04,0.97,2.83,1.71c0.79,0.74,1.42,1.64,1.86,2.7
		C111.06,32.66,111.29,33.85,111.29,35.16z M107.05,35.16c0-0.71-0.12-1.37-0.35-1.99c-0.23-0.62-0.55-1.15-0.96-1.58
		c-0.41-0.44-0.9-0.79-1.48-1.04c-0.58-0.25-1.21-0.38-1.91-0.38s-1.33,0.13-1.9,0.38c-0.57,0.25-1.06,0.6-1.48,1.04
		c-0.42,0.44-0.74,0.97-0.96,1.58c-0.22,0.62-0.34,1.28-0.34,1.99c0,0.74,0.12,1.42,0.35,2.05c0.23,0.62,0.55,1.16,0.96,1.61
		c0.41,0.45,0.9,0.8,1.47,1.05c0.57,0.25,1.2,0.38,1.9,0.38s1.33-0.13,1.9-0.38c0.57-0.25,1.06-0.61,1.48-1.05s0.74-0.98,0.97-1.61
		C106.93,36.58,107.05,35.9,107.05,35.16z"/>
	<path class="st0" d="M127.02,32.08c0,0.96-0.18,1.76-0.53,2.42s-0.83,1.18-1.43,1.58c-0.6,0.4-1.3,0.69-2.08,0.88
		s-1.6,0.28-2.45,0.28h-1.97v6.18h-3.96V27.04h6.02c0.89,0,1.73,0.09,2.51,0.27c0.78,0.18,1.46,0.46,2.04,0.86
		c0.58,0.39,1.03,0.91,1.37,1.55C126.86,30.35,127.02,31.14,127.02,32.08z M123.06,32.1c0-0.39-0.08-0.7-0.23-0.95
		c-0.15-0.25-0.36-0.44-0.62-0.58c-0.26-0.14-0.56-0.23-0.89-0.28c-0.33-0.05-0.67-0.07-1.03-0.07h-1.74v3.86h1.67
		c0.37,0,0.73-0.03,1.06-0.09c0.34-0.06,0.64-0.17,0.91-0.32c0.27-0.15,0.48-0.36,0.64-0.61C122.99,32.81,123.06,32.49,123.06,32.1z
		"/>
	<path class="st0" d="M130.1,43.42V27.04h3.98v16.38H130.1z"/>
	<path class="st0" d="M149.26,43.42l-1.27-3.22h-6.34l-1.2,3.22h-4.3l6.87-16.38h3.84l6.8,16.38H149.26z M144.86,31.41l-2.08,5.62
		h4.12L144.86,31.41z"/>
</g>
<g>
	<path class="st0" d="M4.45,47.35h6.7c1.21,0,2.3,0.13,3.28,0.38c0.98,0.25,1.83,0.64,2.53,1.16c0.7,0.52,1.24,1.17,1.62,1.96
		c0.38,0.78,0.57,1.71,0.57,2.77s-0.2,1.98-0.59,2.77c-0.39,0.78-0.94,1.44-1.64,1.96c-0.7,0.52-1.55,0.91-2.55,1.18
		c-0.99,0.27-2.09,0.4-3.3,0.4H6.86v10.91H4.45V47.35z M6.86,57.89h4.09c1.9,0,3.34-0.37,4.32-1.09c0.98-0.73,1.47-1.79,1.47-3.18
		c0-1.46-0.51-2.52-1.52-3.2c-1.02-0.67-2.44-1.01-4.27-1.01H6.86V57.89z"/>
	<path class="st0" d="M26.28,70.82h-2.41V47.35h2.41V70.82z"/>
	<path class="st0" d="M52.54,67.01c-0.4,0.6-0.89,1.16-1.46,1.69s-1.23,1-1.98,1.4c-0.75,0.4-1.57,0.72-2.48,0.96
		c-0.9,0.24-1.89,0.35-2.96,0.35c-1.79,0-3.44-0.31-4.96-0.93c-1.52-0.62-2.83-1.48-3.92-2.57c-1.09-1.09-1.95-2.39-2.56-3.89
		c-0.61-1.5-0.92-3.15-0.92-4.94c0-1.79,0.31-3.44,0.94-4.94c0.62-1.5,1.49-2.8,2.6-3.89c1.11-1.09,2.41-1.95,3.92-2.57
		s3.14-0.93,4.91-0.93c0.87,0,1.73,0.09,2.56,0.27c0.84,0.18,1.62,0.43,2.36,0.76c0.74,0.33,1.41,0.72,2.01,1.17
		c0.6,0.46,1.11,0.97,1.51,1.55l-2.01,1.46c-0.25-0.38-0.57-0.75-0.99-1.13c-0.41-0.38-0.9-0.71-1.46-0.99
		c-0.56-0.29-1.17-0.52-1.83-0.7c-0.66-0.18-1.37-0.27-2.13-0.27c-1.54,0-2.92,0.28-4.14,0.83c-1.22,0.55-2.25,1.29-3.1,2.23
		c-0.85,0.94-1.5,2.02-1.94,3.25c-0.45,1.23-0.67,2.53-0.67,3.9s0.23,2.67,0.69,3.9c0.46,1.23,1.11,2.32,1.96,3.25
		c0.85,0.94,1.88,1.68,3.1,2.23c1.22,0.55,2.58,0.83,4.1,0.83c1.36,0,2.66-0.28,3.89-0.83c1.23-0.55,2.25-1.44,3.08-2.65
		L52.54,67.01z"/>
	<path class="st0" d="M64.1,70.82h-2.41V49.47h-7.94v-2.12h18.29v2.12H64.1V70.82z"/>
	<path class="st0" d="M84.33,71.41c-1.79,0-3.25-0.3-4.39-0.91c-1.14-0.61-2.04-1.38-2.71-2.3c-0.67-0.93-1.13-1.94-1.39-3.03
		s-0.38-2.13-0.38-3.1V47.35h2.41V61.8c0,0.95,0.11,1.87,0.33,2.77c0.22,0.89,0.59,1.69,1.09,2.39c0.5,0.7,1.17,1.26,1.99,1.69
		c0.83,0.43,1.84,0.65,3.05,0.65c1.21,0,2.22-0.22,3.05-0.65c0.83-0.43,1.49-0.99,1.99-1.69c0.5-0.7,0.86-1.49,1.09-2.39
		c0.22-0.9,0.33-1.82,0.33-2.77V47.35h2.41v14.72c0,0.97-0.13,2.01-0.39,3.1s-0.72,2.1-1.39,3.03c-0.67,0.93-1.58,1.7-2.73,2.3
		C87.55,71.11,86.09,71.41,84.33,71.41z"/>
	<path class="st0" d="M101.78,70.82h-2.41V47.35h6.97c1.16,0,2.24,0.11,3.23,0.33c0.99,0.22,1.85,0.58,2.58,1.08
		c0.72,0.5,1.29,1.14,1.69,1.94c0.4,0.79,0.6,1.77,0.6,2.92c0,0.86-0.16,1.65-0.47,2.35c-0.31,0.71-0.74,1.32-1.27,1.84
		c-0.54,0.52-1.17,0.93-1.91,1.24c-0.74,0.31-1.54,0.51-2.41,0.6l6.93,11.17h-2.95l-6.57-10.97h-4.02V70.82z M101.78,57.79h4.19
		c1.94,0,3.44-0.35,4.49-1.04c1.05-0.7,1.57-1.74,1.57-3.13c0-0.77-0.15-1.42-0.44-1.96c-0.29-0.53-0.69-0.96-1.21-1.29
		s-1.14-0.57-1.88-0.73c-0.74-0.15-1.55-0.23-2.44-0.23h-4.29V57.79z"/>
	<path class="st0" d="M121.84,68.7h12.69v2.12h-15.11V47.35h14.7v2.12h-12.29v8.05h11.49v2.12h-11.49V68.7z"/>
	<path class="st0" d="M150.75,51.13c-0.51-0.71-1.17-1.28-1.98-1.71c-0.8-0.43-1.78-0.65-2.91-0.65c-0.58,0-1.17,0.09-1.78,0.27
		c-0.6,0.18-1.15,0.45-1.64,0.81s-0.89,0.82-1.19,1.38c-0.3,0.55-0.45,1.2-0.45,1.96s0.14,1.37,0.43,1.86
		c0.29,0.49,0.67,0.9,1.15,1.24c0.48,0.34,1.02,0.62,1.64,0.84c0.61,0.22,1.25,0.44,1.92,0.66c0.82,0.26,1.65,0.55,2.49,0.86
		c0.83,0.31,1.59,0.71,2.25,1.21s1.21,1.13,1.64,1.89c0.42,0.76,0.63,1.73,0.63,2.9s-0.23,2.18-0.68,3.03
		c-0.45,0.85-1.04,1.55-1.76,2.11c-0.72,0.55-1.54,0.96-2.47,1.23c-0.93,0.26-1.86,0.4-2.8,0.4c-0.71,0-1.43-0.07-2.14-0.22
		s-1.4-0.36-2.04-0.65c-0.65-0.29-1.25-0.65-1.81-1.09c-0.56-0.44-1.05-0.95-1.47-1.52l2.08-1.52c0.51,0.84,1.23,1.54,2.16,2.1
		c0.93,0.56,2.01,0.85,3.27,0.85c0.6,0,1.22-0.09,1.84-0.28c0.62-0.19,1.19-0.47,1.69-0.86s0.92-0.86,1.24-1.43
		c0.32-0.56,0.49-1.22,0.49-1.97c0-0.82-0.16-1.5-0.49-2.04c-0.32-0.54-0.75-0.99-1.29-1.36c-0.54-0.36-1.15-0.67-1.84-0.91
		s-1.42-0.49-2.18-0.73c-0.78-0.24-1.55-0.52-2.31-0.83s-1.44-0.71-2.04-1.21s-1.09-1.11-1.46-1.84s-0.55-1.62-0.55-2.68
		c0-1.13,0.23-2.1,0.69-2.92s1.06-1.49,1.79-2.02c0.74-0.53,1.55-0.92,2.45-1.16c0.89-0.24,1.78-0.36,2.65-0.36
		c1.61,0,2.98,0.28,4.12,0.85s2,1.23,2.58,2.01L150.75,51.13z"/>
</g>
</svg>
