<?xml version="1.0" encoding="utf-8"?>
<!-- Generator: Adobe Illustrator 27.2.0, SVG Export Plug-In . SVG Version: 6.00 Build 0)  -->
<svg version="1.1" id="Lager_1" xmlns="http://www.w3.org/2000/svg" xmlns:xlink="http://www.w3.org/1999/xlink" x="0px" y="0px"
	 viewBox="0 0 200 76" style="enable-background:new 0 0 200 76;" xml:space="preserve">
<style type="text/css">
	.st0{fill:none;stroke:#FFFFFF;stroke-width:2;stroke-miterlimit:10;}
	.st1{fill:none;}
	.st2{enable-background:new    ;}
	.st3{fill:#FFFFFF;}
</style>
<rect y="0" class="st0" width="200" height="76"/>
<g>
	<rect x="16.58" y="29.22" class="st1" width="166.83" height="17.57"/>
	<g class="st2">
		<path class="st3" d="M31.5,37.59c0,5.31-3.22,8.12-7.16,8.12c-4.07,0-6.93-3.16-6.93-7.83c0-4.9,3.04-8.1,7.16-8.1
			C28.78,29.79,31.5,33.02,31.5,37.59z M19.54,37.84c0,3.3,1.78,6.24,4.92,6.24c3.16,0,4.94-2.91,4.94-6.41
			c0-3.07-1.6-6.27-4.92-6.27C21.18,31.42,19.54,34.46,19.54,37.84z"/>
		<path class="st3" d="M35.02,45.46V30.04h2.17l4.94,7.8c1.14,1.81,2.04,3.43,2.76,5.01l0.05-0.02c-0.18-2.06-0.23-3.94-0.23-6.34
			v-6.45h1.88v15.42h-2.01l-4.9-7.83c-1.08-1.72-2.11-3.48-2.88-5.15l-0.07,0.02c0.11,1.94,0.16,3.79,0.16,6.36v6.59
			C36.9,45.46,35.02,45.46,35.02,45.46z"/>
		<path class="st3" d="M51.02,30.04h1.99V43.8h6.59v1.67h-8.58V30.04z"/>
		<path class="st3" d="M64.75,30.04v15.42h-1.99V30.04H64.75z"/>
		<path class="st3" d="M69.16,45.46V30.04h2.17l4.94,7.8c1.14,1.81,2.04,3.43,2.76,5.01l0.05-0.02c-0.18-2.06-0.23-3.94-0.23-6.34
			v-6.45h1.88v15.42h-2.01l-4.9-7.83c-1.08-1.72-2.11-3.48-2.88-5.15l-0.07,0.02c0.11,1.94,0.16,3.79,0.16,6.36v6.59
			C71.04,45.46,69.16,45.46,69.16,45.46z"/>
		<path class="st3" d="M93.14,38.23h-6v5.56h6.68v1.67h-8.68V30.04h8.33v1.67h-6.34v4.87h6V38.23z"/>
		<path class="st3" d="M103.14,30.24c0.87-0.18,2.24-0.32,3.64-0.32c1.99,0,3.27,0.34,4.23,1.12c0.8,0.59,1.28,1.51,1.28,2.73
			c0,1.49-0.98,2.79-2.61,3.38v0.05c1.47,0.36,3.18,1.58,3.18,3.87c0,1.33-0.52,2.34-1.31,3.09c-1.08,0.98-2.81,1.44-5.33,1.44
			c-1.37,0-2.42-0.1-3.09-0.18V30.24z M105.13,36.57h1.81c2.11,0,3.34-1.1,3.34-2.58c0-1.81-1.37-2.52-3.38-2.52
			c-0.92,0-1.44,0.07-1.76,0.13V36.57z M105.13,43.95c0.39,0.07,0.96,0.1,1.67,0.1c2.06,0,3.96-0.75,3.96-2.99
			c0-2.11-1.81-2.97-3.98-2.97h-1.65L105.13,43.95L105.13,43.95z"/>
		<path class="st3" d="M118.47,30.04v15.42h-1.99V30.04H118.47z"/>
		<path class="st3" d="M122.88,30.04h1.99V43.8h6.59v1.67h-8.58V30.04z"/>
		<path class="st3" d="M138.03,30.04h1.99v10.32c0,4.1-2.01,5.36-4.67,5.36c-0.73,0-1.63-0.16-2.13-0.36l0.3-1.62
			c0.41,0.16,1.01,0.3,1.67,0.3c1.78,0,2.84-0.8,2.84-3.82V30.04z"/>
		<path class="st3" d="M152.26,38.23h-6v5.56h6.68v1.67h-8.68V30.04h8.33v1.67h-6.34v4.87h6V38.23z"/>
		<path class="st3" d="M159.76,31.73h-4.69v-1.7h11.42v1.7h-4.71v13.73h-2.01L159.76,31.73L159.76,31.73z"/>
		<path class="st3" d="M172.94,31.73h-4.69v-1.7h11.42v1.7h-4.72v13.73h-2.01V31.73z"/>
	</g>
</g>
</svg>
