<?xml version="1.0" encoding="utf-8"?>
<!-- Generator: Adobe Illustrator 27.2.0, SVG Export Plug-In . SVG Version: 6.00 Build 0)  -->
<svg version="1.1" id="Lager_1" xmlns="http://www.w3.org/2000/svg" xmlns:xlink="http://www.w3.org/1999/xlink" x="0px" y="0px"
	 viewBox="0 0 200 76" style="enable-background:new 0 0 200 76;" xml:space="preserve">
<style type="text/css">
	.st0{fill:none;stroke:#FFFFFF;stroke-width:2;stroke-miterlimit:10;}
	.st1{fill:#FFFFFF;}
</style>
<rect class="st0" width="200" height="76"/>
<g>
	<g>
		<path class="st1" d="M22.79,33.27c-0.2-0.4-0.53-0.84-0.86-1.1c-0.29-0.22-0.81-0.51-1.65-0.51c-1.45,0-2.46,0.9-2.46,2.27
			c0,0.57,0.15,0.9,0.55,1.28c0.44,0.44,0.99,0.68,1.54,0.92l1.41,0.62c0.86,0.37,1.65,0.77,2.27,1.39
			c0.75,0.75,1.06,1.61,1.06,2.66c0,2.71-2,4.51-4.64,4.51c-0.97,0-2.18-0.2-3.19-1.19c-0.73-0.7-1.17-1.72-1.36-2.6l1.58-0.44
			c0.11,0.77,0.46,1.43,0.88,1.87c0.64,0.64,1.36,0.81,2.11,0.81c2,0,2.95-1.43,2.95-2.9c0-0.66-0.2-1.23-0.73-1.72
			c-0.42-0.4-0.99-0.66-1.76-1.01l-1.32-0.62c-0.57-0.26-1.3-0.57-1.96-1.21c-0.64-0.62-1.01-1.3-1.01-2.4
			c0-2.27,1.74-3.78,4.11-3.78c0.9,0,1.63,0.18,2.35,0.66c0.59,0.4,1.1,0.99,1.43,1.63L22.79,33.27z"/>
		<path class="st1" d="M30.95,30.36c1.47,0,2.71,0.18,3.7,1.03c1.08,0.92,1.34,2.22,1.34,3.15c0,2.07-1.3,4.11-4.64,4.11h-1.43v6.38
			h-1.63V30.36H30.95z M29.91,37.12h1.34c1.94,0,3.1-0.97,3.1-2.66c0-2.33-2.18-2.55-3.23-2.55h-1.21V37.12z"/>
		<path class="st1" d="M46.59,31.9h-5.99v4.36h5.81v1.54h-5.81v5.7h5.99v1.54h-7.61V30.36h7.61V31.9z"/>
		<path class="st1" d="M51.87,30.36V43.5h4.05v1.54h-5.68V30.36H51.87z"/>
		<path class="st1" d="M66.87,40.9h-6.25l-1.76,4.14h-1.8l6.75-15.38l6.58,15.38h-1.8L66.87,40.9z M66.24,39.36l-2.46-5.88
			l-2.51,5.88H66.24z"/>
		<path class="st1" d="M82.52,31.9v13.14h-1.63V31.9h-3.56v-1.54h8.76v1.54H82.52z"/>
		<path class="st1" d="M91.29,30.36c0.99,0,2.46,0.07,3.56,0.81c0.86,0.57,1.61,1.69,1.61,3.26c0,2.24-1.47,3.89-3.7,4.05l4.67,6.56
			h-1.98l-4.47-6.42h-0.42v6.42h-1.63V30.36H91.29z M90.57,37.16h1.03c2.02,0,3.23-0.97,3.23-2.68c0-0.81-0.24-1.63-1.17-2.16
			c-0.66-0.37-1.41-0.42-2.11-0.42h-0.99V37.16z"/>
		<path class="st1" d="M108.74,40.9h-6.25l-1.76,4.14h-1.8l6.75-15.38l6.58,15.38h-1.8L108.74,40.9z M108.1,39.36l-2.46-5.88
			l-2.51,5.88H108.1z"/>
		<path class="st1" d="M116.62,30.36v14.68h-1.63V30.36H116.62z"/>
		<path class="st1" d="M122.69,30.36V43.5h4.05v1.54h-5.68V30.36H122.69z"/>
		<path class="st1" d="M137.21,31.9h-5.98v4.36h5.81v1.54h-5.81v5.7h5.98v1.54h-7.61V30.36h7.61V31.9z"/>
		<path class="st1" d="M143.21,30.36c0.99,0,2.46,0.07,3.56,0.81c0.86,0.57,1.61,1.69,1.61,3.26c0,2.24-1.47,3.89-3.7,4.05
			l4.67,6.56h-1.98l-4.47-6.42h-0.42v6.42h-1.63V30.36H143.21z M142.49,37.16h1.03c2.02,0,3.23-0.97,3.23-2.68
			c0-0.81-0.24-1.63-1.17-2.16c-0.66-0.37-1.41-0.42-2.11-0.42h-0.99V37.16z"/>
	</g>
	<polygon class="st1" points="178,38.5 157,49 157,28 178,38.5 	"/>
</g>
</svg>
