<?xml version="1.0" encoding="UTF-8"?>
<svg id="Layer_1" data-name="Layer 1" xmlns="http://www.w3.org/2000/svg" viewBox="0 0 126.9 42.93">
  <defs>
    <style>
      .cls-1 {
        fill: #fff;
        stroke-width: 0px;
      }
    </style>
  </defs>
  <path class="cls-1" d="m0,8.58h14.25l8.36,14.01,8.38-14.01h14.17l-16.14,24.13v9.52h-12.87v-9.52S0,8.58,0,8.58Z"/>
  <path class="cls-1" d="m73.03,25.23l11.24,3.4c-.76,3.15-1.94,5.79-3.57,7.9-1.62,2.11-3.64,3.71-6.05,4.79s-5.47,1.61-9.19,1.61c-4.51,0-8.2-.66-11.06-1.97-2.86-1.31-5.33-3.62-7.41-6.92-2.08-3.3-3.12-7.53-3.12-12.68,0-6.87,1.83-12.15,5.48-15.83,3.65-3.69,8.82-5.53,15.51-5.53,5.23,0,9.34,1.06,12.33,3.17,2.99,2.11,5.22,5.36,6.67,9.74l-11.33,2.52c-.4-1.26-.81-2.19-1.25-2.78-.72-.98-1.6-1.74-2.63-2.27-1.04-.53-2.2-.79-3.48-.79-2.91,0-5.14,1.17-6.68,3.51-1.17,1.73-1.76,4.46-1.76,8.17,0,4.6.7,7.76,2.1,9.46,1.4,1.71,3.36,2.56,5.89,2.56s4.31-.69,5.56-2.07c1.26-1.38,2.17-3.38,2.73-6Z"/>
  <path class="cls-1" d="m111.39,35.37h-14.56l-2.02,6.85h-13.1L97.31.71h13.99l15.6,41.52h-13.43l-2.08-6.85Zm-2.66-8.98l-4.58-14.92-4.53,14.92h9.12Z"/>
  <g>
    <path class="cls-1" d="m.13,2.68h1.86v.76c.27-.32.54-.54.81-.67.27-.13.6-.2.99-.2.41,0,.74.07.98.22s.44.36.59.65c.31-.34.6-.57.85-.69s.57-.18.95-.18c.56,0,.99.17,1.3.5s.47.85.47,1.55v3.26h-1.99v-2.95c0-.23-.05-.41-.14-.52-.13-.18-.3-.27-.5-.27-.23,0-.42.08-.56.25-.14.17-.21.44-.21.82v2.68h-1.99v-2.86c0-.23-.01-.38-.04-.46-.04-.13-.12-.24-.22-.31s-.23-.12-.37-.12c-.23,0-.42.09-.56.26-.15.17-.22.46-.22.85v2.65H.13V2.68Z"/>
    <path class="cls-1" d="m11.83,4.36l-1.9-.2c.07-.33.17-.59.31-.78s.33-.36.58-.5c.18-.1.43-.18.75-.23s.66-.08,1.04-.08c.6,0,1.07.03,1.44.1s.66.21.9.42c.17.15.3.35.4.62s.15.52.15.77v2.29c0,.24.02.44.05.57s.1.31.2.53h-1.87c-.07-.13-.12-.24-.15-.31s-.05-.18-.07-.33c-.26.25-.52.43-.78.54-.35.14-.76.21-1.23.21-.62,0-1.09-.14-1.41-.43s-.48-.64-.48-1.06c0-.39.12-.72.35-.97s.66-.44,1.28-.57c.75-.15,1.23-.25,1.45-.31s.46-.14.7-.24c0-.24-.05-.42-.15-.51s-.28-.15-.53-.15c-.33,0-.57.05-.73.16-.13.08-.23.23-.31.46Zm1.72,1.04c-.27.1-.56.18-.85.26-.4.11-.66.21-.77.32-.11.11-.17.23-.17.37,0,.16.05.28.16.38s.27.15.48.15.43-.05.62-.16.33-.24.41-.39.12-.36.12-.6v-.32Z"/>
    <path class="cls-1" d="m18.81.71v1.97h1.09v1.46h-1.09v1.84c0,.22.02.37.06.44.06.11.18.17.34.17.15,0,.35-.04.62-.13l.15,1.37c-.49.11-.95.16-1.38.16-.49,0-.86-.06-1.09-.19-.23-.13-.41-.32-.52-.58s-.17-.68-.17-1.26v-1.82h-.73v-1.46h.73v-.95l1.99-1.02Z"/>
    <path class="cls-1" d="m26.54,4.39l1.55.35c-.08.29-.16.52-.23.69s-.18.38-.32.61l.75.51c.09.06.21.13.35.21l-1.07,1.23c-.2-.1-.4-.22-.61-.36s-.4-.25-.56-.35c-.35.23-.69.39-1.04.5-.48.14-1.02.21-1.63.21-.95,0-1.66-.2-2.13-.6s-.7-.88-.7-1.45c0-.41.14-.79.41-1.15s.72-.67,1.34-.92c-.26-.32-.44-.59-.54-.82s-.15-.47-.15-.71c0-.51.19-.93.58-1.25s.98-.49,1.76-.49,1.4.16,1.77.47.57.69.57,1.12c0,.24-.06.48-.17.7s-.25.41-.42.55-.45.35-.87.62c.35.35.71.67,1.09.97.1-.2.19-.42.26-.64Zm-2.99.48c-.27.19-.46.36-.54.49s-.13.28-.13.43c0,.24.1.45.31.63s.47.28.8.28c.35,0,.75-.14,1.2-.42-.42-.33-.97-.8-1.63-1.43Zm.71-1.74c.26-.14.46-.29.6-.46s.21-.32.21-.47-.06-.28-.18-.39-.28-.16-.48-.16-.37.06-.49.18-.19.26-.19.42c0,.2.18.49.54.88Z"/>
    <path class="cls-1" d="m29.71.71h2.01v2.48c.2-.21.42-.36.68-.47s.53-.16.84-.16c.63,0,1.15.23,1.57.68s.62,1.11.62,1.96c0,.57-.09,1.07-.28,1.5s-.45.75-.78.97-.7.32-1.11.32c-.35,0-.67-.07-.96-.22-.22-.12-.46-.34-.71-.66v.77h-1.86V.71Zm1.99,4.55c0,.45.08.77.25.97s.38.3.64.3c.24,0,.44-.1.6-.3s.24-.53.24-.99c0-.41-.08-.71-.24-.9s-.35-.29-.57-.29c-.27,0-.49.1-.66.3s-.26.5-.26.91Z"/>
    <path class="cls-1" d="m38.13,4.36l-1.9-.2c.07-.33.17-.59.31-.78s.33-.36.58-.5c.18-.1.43-.18.75-.23s.66-.08,1.04-.08c.6,0,1.07.03,1.44.1s.66.21.9.42c.17.15.3.35.4.62s.15.52.15.77v2.29c0,.24.02.44.05.57s.1.31.2.53h-1.87c-.07-.13-.12-.24-.15-.31s-.05-.18-.07-.33c-.26.25-.52.43-.78.54-.35.14-.76.21-1.23.21-.62,0-1.09-.14-1.41-.43s-.48-.64-.48-1.06c0-.39.12-.72.35-.97s.66-.44,1.28-.57c.75-.15,1.23-.25,1.45-.31s.46-.14.7-.24c0-.24-.05-.42-.15-.51s-.28-.15-.53-.15c-.33,0-.57.05-.73.16-.13.08-.23.23-.31.46Zm1.72,1.04c-.27.1-.56.18-.85.26-.4.11-.66.21-.77.32-.11.11-.17.23-.17.37,0,.16.05.28.16.38s.27.15.48.15.43-.05.62-.16.33-.24.41-.39.12-.36.12-.6v-.32Z"/>
    <path class="cls-1" d="m42.96,2.68h1.86v.85c.18-.37.36-.62.55-.76s.43-.21.71-.21.61.09.96.27l-.62,1.42c-.23-.1-.42-.15-.56-.15-.26,0-.46.11-.61.32-.21.3-.31.87-.31,1.7v1.74h-2V2.68Z"/>
  </g>
</svg>